<svg id="Group_572" data-name="Group 572" xmlns="http://www.w3.org/2000/svg" width="72" height="67.481" viewBox="0 0 72 67.481">
  <path id="Path_423" data-name="Path 423" d="M171.113,0,140.219,22.86l5.745-13.472Z" transform="translate(-100.782)" fill="#e17726"/>
  <path id="Path_424" data-name="Path 424" d="M2.954.1,28.037,9.459l5.455,13.649ZM59.111,48.685l13.655.26L67.994,65.157,51.332,60.57Zm-43.8,0,7.75,11.884L6.431,65.157,1.688,48.945Z" transform="translate(-1.213 -0.069)" fill="#e27625"/>
  <path id="Path_425" data-name="Path 425" d="M70.884,69.038l.558,18.023-16.7-.76,4.75-7.166.06-.069Zm8.753-.2,11.5,10.231.06.069L95.95,86.3l-16.694.759ZM61.688,98.145l9.118,7.1-10.591,5.113Zm27.32,0,1.443,12.219-10.562-5.114Z" transform="translate(-39.347 -49.477)" fill="#e27625"/>
  <path id="Path_426" data-name="Path 426" d="M93.108,195.922l10.718,5.19-9.969,4.738.1-3.131Zm-9.553,0-.818,6.743.067,3.179-9.993-4.734Z" transform="translate(-52.333 -140.819)" fill="#d5bfb2"/>
  <path id="Path_427" data-name="Path 427" d="M82.8,142l2.8,5.886-9.535-2.793Zm15.746,0,6.766,3.092-9.566,2.793Z" transform="translate(-54.67 -102.062)" fill="#233447"/>
  <path id="Path_428" data-name="Path 428" d="M56.975,140.887l-1.541,12.667-8.261-12.39Zm25.861,0,9.8.277-8.292,12.391Zm7.913-12.5-7.134,7.271-5.5-2.514-2.633,5.536-1.726-9.52Zm-41.692,0,17,.773-1.727,9.52-2.634-5.535-5.471,2.513Z" transform="translate(-33.906 -92.278)" fill="#cc6228"/>
  <path id="Path_429" data-name="Path 429" d="M52.166,123.045l8.071,8.19.28,8.086Zm42.665-.015-8.366,16.3.315-8.1Zm-25.581.514.325,2.045.8,5.094-.516,15.645-2.44-12.568v-.13Zm8.486-.028,1.834,10.114v.13l-2.446,12.6-.1-3.151-.382-12.617Z" transform="translate(-37.494 -88.428)" fill="#e27525"/>
  <path id="Path_430" data-name="Path 430" d="M106.293,151.046l-.273,7.025L97.506,164.7l-1.721-1.216,1.929-9.938Zm-27.976,0,8.55,2.5,1.929,9.938L87.075,164.7l-8.515-6.634Z" transform="translate(-56.29 -108.564)" fill="#f5841f"/>
  <path id="Path_431" data-name="Path 431" d="M67.018,208.858l10.893,5.161-.046-2.2.912-.8H89.558l.944.8-.07,2.2,10.824-5.144-5.267,4.353L89.621,217.6H78.689l-6.365-4.392Z" transform="translate(-48.169 -150.117)" fill="#c0ac9d"/>
  <path id="Path_432" data-name="Path 432" d="M115.617,193.479l1.54,1.088.9,7.2-1.306-1.1H106.494l-1.281,1.125.873-7.223,1.541-1.089Z" transform="translate(-75.622 -139.063)" fill="#161616"/>
  <path id="Path_433" data-name="Path 433" d="M68.291,2.25,72,13.375,69.684,24.625,71.333,25.9,69.1,27.6l1.677,1.3-2.221,2.022,1.363.987L66.3,36.131,51.461,31.809l-.129-.069-10.7-9.022Zm-64.583,0L31.363,22.719l-10.7,9.022-.129.069L5.7,36.131,2.079,31.9l1.362-.987-2.22-2.023L2.9,27.6.63,25.893,2.342,24.62,0,13.376Z" transform="translate(0 -1.617)" fill="#763e1a"/>
  <path id="Path_434" data-name="Path 434" d="M51.908,53.046l15.726,4.578,5.109,15.746H59.263l-9.287.117L56.73,60.323Zm-29.471,0-4.824,7.277,6.755,13.165-9.283-.117H1.631l5.08-15.746ZM47.124,33.112l-4.4,11.88L41.792,61.04l-.357,5.03-.028,12.85H32.938L32.91,66.094l-.358-5.059-.934-16.044-4.4-11.88Z" transform="translate(-1.172 -23.799)" fill="#f5841f"/>
</svg>
