<svg xmlns="http://www.w3.org/2000/svg" width="72" height="72" viewBox="0 0 72 72">
  <path id="Path_435" data-name="Path 435" d="M36,0A36,36,0,1,0,72,36,36.005,36.005,0,0,0,36,0ZM17.76,37.209l.153-.243,9.369-14.652a.321.321,0,0,1,.561.042c1.56,3.507,2.916,7.869,2.28,10.584a16.147,16.147,0,0,1-1.842,4.026q-.161.307-.351.6a.318.318,0,0,1-.27.135H18.039a.318.318,0,0,1-.273-.489ZM59.5,42.249a.327.327,0,0,1-.195.3c-.729.309-3.21,1.455-4.242,2.886-2.634,3.666-4.644,8.91-9.144,8.91H27.159A12.057,12.057,0,0,1,15.12,42.264v-.216a.321.321,0,0,1,.324-.318H25.9a.358.358,0,0,1,.345.4,3.53,3.53,0,0,0,.375,2.01,3.675,3.675,0,0,0,3.3,2.046h5.178V42.141H29.97a.33.33,0,0,1-.267-.519l.189-.27c.48-.693,1.173-1.758,1.863-2.976a23.514,23.514,0,0,0,1.29-2.58c.072-.156.129-.321.195-.48.1-.282.2-.546.273-.807q.106-.332.195-.669a10.629,10.629,0,0,0,.243-2.361c0-.324-.012-.663-.042-.981-.015-.351-.06-.7-.1-1.056q-.05-.471-.144-.936-.121-.707-.294-1.4l-.042-.18c-.09-.324-.168-.63-.27-.951q-.428-1.479-.984-2.916-.193-.54-.426-1.065c-.216-.534-.438-1.017-.639-1.47q-.15-.291-.282-.591-.146-.323-.309-.639c-.072-.159-.159-.312-.216-.456l-.633-1.164a.207.207,0,0,1,.231-.3l3.96,1.071h.03l.519.15.576.162.21.057V16.458A2.043,2.043,0,0,1,37.131,14.4a1.98,1.98,0,0,1,1.431.606,2.07,2.07,0,0,1,.6,1.452V19.95l.423.117a.561.561,0,0,1,.093.051c.1.072.252.186.441.33.15.114.309.258.5.411q.889.724,1.722,1.512c.642.6,1.362,1.3,2.052,2.073.195.222.381.438.576.678s.4.468.57.7c.237.312.48.636.705.972.1.159.222.324.315.483a14.868,14.868,0,0,1,.771,1.305c.1.2.2.423.288.639a8.842,8.842,0,0,1,.606,1.794,1.95,1.95,0,0,1,.087.4v.03a3.506,3.506,0,0,1,.072.552,6.171,6.171,0,0,1-.318,2.622c-.093.252-.18.51-.294.762a10.775,10.775,0,0,1-.792,1.506c-.1.18-.225.366-.339.546s-.267.369-.381.54q-.247.341-.519.663a7.25,7.25,0,0,1-.5.627c-.243.294-.48.57-.735.834a5.356,5.356,0,0,1-.468.51c-.156.18-.324.339-.468.483-.252.252-.45.441-.624.606l-.411.366a.306.306,0,0,1-.216.09H39.162v4.038h3.966a3.7,3.7,0,0,0,2.412-.894,29.078,29.078,0,0,0,2.448-2.406.282.282,0,0,1,.15-.09l10.95-3.171a.324.324,0,0,1,.414.309Z" fill="#3b82f6"/>
</svg>
