<svg xmlns="http://www.w3.org/2000/svg" xmlns:xlink="http://www.w3.org/1999/xlink" width="109.052" height="95.75" viewBox="0 0 109.052 95.75">
  <defs>
    <linearGradient id="linear-gradient" x1="0.757" x2="0.242" y2="1" gradientUnits="objectBoundingBox">
      <stop offset="0" stop-color="#ae5ecb"/>
      <stop offset="1" stop-color="#7e6ef8"/>
    </linearGradient>
    <filter id="Polygon_2" x="0" y="0" width="109.052" height="95.75" filterUnits="userSpaceOnUse">
      <feOffset dx="2" dy="3" input="SourceAlpha"/>
      <feGaussianBlur stdDeviation="3" result="blur"/>
      <feFlood flood-color="#8e8b8b" flood-opacity="0.161"/>
      <feComposite operator="in" in2="blur"/>
      <feComposite in="SourceGraphic"/>
    </filter>
  </defs>
  <g id="Group_42" data-name="Group 42" transform="translate(-845 -1847.25)">
    <g id="User_-_Login_Reg" data-name="User - Login/Reg" transform="translate(790 1853.25)">
      <g transform="matrix(1, 0, 0, 1, 55, -6)" filter="url(#Polygon_2)">
        <path id="Polygon_2-2" data-name="Polygon 2" d="M62.556,0a10,10,0,0,1,8.629,4.947L88.094,33.822a10,10,0,0,1,0,10.106L71.186,72.8a10,10,0,0,1-8.629,4.947H28.5A10,10,0,0,1,19.866,72.8L2.959,43.928a10,10,0,0,1,0-10.106L19.866,4.947A10,10,0,0,1,28.5,0Z" transform="translate(7 6)" fill="url(#linear-gradient)"/>
      </g>
    </g>
    <g id="User_-_Login_Reg-2" data-name="User - Login/Reg" transform="translate(672 1853.25)">
      <path id="Icon_awesome-btc" data-name="Icon awesome-btc" d="M17.784,13.872a4.287,4.287,0,0,0,2.36-4.648c-.306-3.279-3-4.378-6.566-4.684V0H10.8V4.414c-.721,0-1.459.018-2.2.036V0H5.831V4.54c-1.02.031-2.208.016-5.567,0V7.494c2.19-.039,3.34-.18,3.6,1.225V21.15c-.167,1.114-1.059.954-3.045.919l-.558,3.3c5.059,0,5.567.018,5.567.018v3.888H8.606V25.438c.757.018,1.5.018,2.2.018v3.816h2.774V25.384c4.648-.252,7.755-1.423,8.169-5.8C22.072,16.07,20.414,14.5,17.784,13.872ZM8.66,7.693c1.567,0,6.468-.486,6.468,2.774,0,3.117-4.9,2.756-6.468,2.756V7.693Zm0,14.394V16c1.874,0,7.611-.522,7.611,3.045C16.271,22.483,10.534,22.087,8.66,22.087Z" transform="translate(214.5 24.239)" fill="none" stroke="#fff" stroke-width="2"/>
    </g>
  </g>
</svg>
