<svg id="Group_30" data-name="Group 30" xmlns="http://www.w3.org/2000/svg" width="33.714" height="28.788" viewBox="0 0 33.714 28.788">
  <g id="Group_29" data-name="Group 29" transform="translate(0 0)">
    <path id="Polygon_5" data-name="Polygon 5" d="M19.553,0a10,10,0,0,1,8.629,4.947l2.573,4.394a10,10,0,0,1,0,10.106l-2.573,4.394a10,10,0,0,1-8.629,4.947H14.161a10,10,0,0,1-8.629-4.947L2.959,19.447a10,10,0,0,1,0-10.106L5.532,4.947A10,10,0,0,1,14.161,0Z" fill="#ae5ecb"/>
  </g>
  <path id="Icon_awesome-ethereum" data-name="Icon awesome-ethereum" d="M10.9,8.872,5.733,12.029.563,8.872,5.733,0ZM5.733,13.043.563,9.886l5.171,7.532L10.9,9.886Z" transform="translate(11.124 5.685)" fill="#fff"/>
</svg>
