<svg id="Instargam" xmlns="http://www.w3.org/2000/svg" width="45.651" height="38.98" viewBox="0 0 45.651 38.98">
  <g id="Polygon_10" data-name="Polygon 10" fill="none">
    <path d="M28.506,0a10,10,0,0,1,8.629,4.947l5.557,9.49a10,10,0,0,1,0,10.106l-5.557,9.49a10,10,0,0,1-8.629,4.947H17.145a10,10,0,0,1-8.629-4.947l-5.557-9.49a10,10,0,0,1,0-10.106l5.557-9.49A10,10,0,0,1,17.145,0Z" stroke="none"/>
    <path d="M 17.1454029083252 2 C 14.31658363342285 2 11.67131423950195 3.516441345214844 10.24189376831055 5.957538604736328 L 4.684783935546875 15.44771957397461 C 3.224685668945312 17.94118881225586 3.224685668945312 21.03915023803711 4.684783935546875 23.53263092041016 L 10.24189376831055 33.02280044555664 C 11.67130279541016 35.46389770507812 14.31657409667969 36.98033905029297 17.1454029083252 36.98033905029297 L 28.50561332702637 36.98033905029297 C 31.33443450927734 36.98033905029297 33.97971343994141 35.46389770507812 35.40913391113281 33.02280044555664 L 40.96624374389648 23.53263092041016 C 42.42633438110352 21.03915023803711 42.42633438110352 17.94118881225586 40.96624374389648 15.44771003723145 L 35.40913391113281 5.957538604736328 C 33.97971343994141 3.516441345214844 31.33444404602051 2 28.50562477111816 2 L 17.1454029083252 2 M 17.1454029083252 0 L 28.50562477111816 0 C 32.05635452270508 0 35.34080505371094 1.882858276367188 37.13501358032227 4.946929931640625 L 42.69212341308594 14.43709945678711 C 44.51959228515625 17.55797004699707 44.51959228515625 21.4223690032959 42.69212341308594 24.54323959350586 L 37.13501358032227 34.03340911865234 C 35.34080505371094 37.09748077392578 32.05635452270508 38.98033905029297 28.50561332702637 38.98033905029297 L 17.1454029083252 38.98033905029297 C 13.59467315673828 38.98033905029297 10.31021499633789 37.09748077392578 8.516014099121094 34.03340911865234 L 2.958904266357422 24.54323959350586 C 1.131423950195312 21.4223690032959 1.131423950195312 17.55797004699707 2.958904266357422 14.43709945678711 L 8.516014099121094 4.946929931640625 C 10.31022262573242 1.882858276367188 13.59467315673828 0 17.1454029083252 0 Z" stroke="none" fill="#fff"/>
  </g>
  <path id="Icon_awesome-instagram" data-name="Icon awesome-instagram" d="M8.492,6.376a4.355,4.355,0,1,0,4.355,4.355A4.348,4.348,0,0,0,8.492,6.376Zm0,7.187a2.831,2.831,0,1,1,2.831-2.831,2.837,2.837,0,0,1-2.831,2.831ZM14.041,6.2a1.016,1.016,0,1,1-1.016-1.016A1.013,1.013,0,0,1,14.041,6.2Zm2.885,1.031A5.027,5.027,0,0,0,15.554,3.67,5.06,5.06,0,0,0,11.994,2.3c-1.4-.08-5.606-.08-7.009,0A5.053,5.053,0,0,0,1.427,3.666,5.044,5.044,0,0,0,.054,7.225c-.08,1.4-.08,5.606,0,7.009a5.027,5.027,0,0,0,1.372,3.559,5.067,5.067,0,0,0,3.559,1.372c1.4.08,5.606.08,7.009,0a5.027,5.027,0,0,0,3.559-1.372,5.06,5.06,0,0,0,1.372-3.559c.08-1.4.08-5.6,0-7Zm-1.812,8.51A2.867,2.867,0,0,1,13.5,17.353c-1.118.443-3.771.341-5.007.341s-3.893.1-5.007-.341A2.867,2.867,0,0,1,1.87,15.738c-.443-1.118-.341-3.771-.341-5.007s-.1-3.893.341-5.007A2.867,2.867,0,0,1,3.485,4.109c1.118-.443,3.771-.341,5.007-.341s3.893-.1,5.007.341a2.867,2.867,0,0,1,1.615,1.615c.443,1.118.341,3.771.341,5.007S15.557,14.624,15.114,15.738Z" transform="translate(14.335 9.423)" fill="#fff"/>
</svg>
