<svg id="Google" xmlns="http://www.w3.org/2000/svg" width="45.651" height="38.98" viewBox="0 0 45.651 38.98">
  <g id="Polygon_9" data-name="Polygon 9" fill="none">
    <path d="M28.506,0a10,10,0,0,1,8.629,4.947l5.557,9.49a10,10,0,0,1,0,10.106l-5.557,9.49a10,10,0,0,1-8.629,4.947H17.145a10,10,0,0,1-8.629-4.947l-5.557-9.49a10,10,0,0,1,0-10.106l5.557-9.49A10,10,0,0,1,17.145,0Z" stroke="none"/>
    <path d="M 17.1454029083252 2 C 14.31658363342285 2 11.67131423950195 3.516441345214844 10.24189376831055 5.957538604736328 L 4.684783935546875 15.44771957397461 C 3.224685668945312 17.94118881225586 3.224685668945312 21.03915023803711 4.684783935546875 23.53263092041016 L 10.24189376831055 33.02280044555664 C 11.67130279541016 35.46389770507812 14.31657409667969 36.98033905029297 17.1454029083252 36.98033905029297 L 28.50561332702637 36.98033905029297 C 31.33443450927734 36.98033905029297 33.97971343994141 35.46389770507812 35.40913391113281 33.02280044555664 L 40.96624374389648 23.53263092041016 C 42.42633438110352 21.03915023803711 42.42633438110352 17.94118881225586 40.96624374389648 15.44771003723145 L 35.40913391113281 5.957538604736328 C 33.97971343994141 3.516441345214844 31.33444404602051 2 28.50562477111816 2 L 17.1454029083252 2 M 17.1454029083252 0 L 28.50562477111816 0 C 32.05635452270508 0 35.34080505371094 1.882858276367188 37.13501358032227 4.946929931640625 L 42.69212341308594 14.43709945678711 C 44.51959228515625 17.55797004699707 44.51959228515625 21.4223690032959 42.69212341308594 24.54323959350586 L 37.13501358032227 34.03340911865234 C 35.34080505371094 37.09748077392578 32.05635452270508 38.98033905029297 28.50561332702637 38.98033905029297 L 17.1454029083252 38.98033905029297 C 13.59467315673828 38.98033905029297 10.31021499633789 37.09748077392578 8.516014099121094 34.03340911865234 L 2.958904266357422 24.54323959350586 C 1.131423950195312 21.4223690032959 1.131423950195312 17.55797004699707 2.958904266357422 14.43709945678711 L 8.516014099121094 4.946929931640625 C 10.31022262573242 1.882858276367188 13.59467315673828 0 17.1454029083252 0 Z" stroke="none" fill="#fff"/>
  </g>
  <path id="Icon_awesome-google" data-name="Icon awesome-google" d="M18.5,10.183c0,5.363-3.673,9.18-9.1,9.18a9.4,9.4,0,0,1,0-18.8,9.04,9.04,0,0,1,6.3,2.46l-2.559,2.46c-3.347-3.229-9.571-.8-9.571,4.48A5.888,5.888,0,0,0,9.4,15.9a5.083,5.083,0,0,0,5.337-4.052H9.4V8.613H18.35A8.241,8.241,0,0,1,18.5,10.183Z" transform="translate(13.577 9.579)" fill="none" stroke="#fff" stroke-width="2"/>
</svg>
