<svg id="Twitter" xmlns="http://www.w3.org/2000/svg" width="45.651" height="38.98" viewBox="0 0 45.651 38.98">
  <g id="Polygon_8" data-name="Polygon 8" fill="none">
    <path d="M28.506,0a10,10,0,0,1,8.629,4.947l5.557,9.49a10,10,0,0,1,0,10.106l-5.557,9.49a10,10,0,0,1-8.629,4.947H17.145a10,10,0,0,1-8.629-4.947l-5.557-9.49a10,10,0,0,1,0-10.106l5.557-9.49A10,10,0,0,1,17.145,0Z" stroke="none"/>
    <path d="M 17.1454029083252 2 C 14.31658363342285 2 11.67131423950195 3.516441345214844 10.24189376831055 5.957538604736328 L 4.684783935546875 15.44771957397461 C 3.224685668945312 17.94118881225586 3.224685668945312 21.03915023803711 4.684783935546875 23.53263092041016 L 10.24189376831055 33.02280044555664 C 11.67130279541016 35.46389770507812 14.31657409667969 36.98033905029297 17.1454029083252 36.98033905029297 L 28.50561332702637 36.98033905029297 C 31.33443450927734 36.98033905029297 33.97971343994141 35.46389770507812 35.40913391113281 33.02280044555664 L 40.96624374389648 23.53263092041016 C 42.42633438110352 21.03915023803711 42.42633438110352 17.94118881225586 40.96624374389648 15.44771003723145 L 35.40913391113281 5.957538604736328 C 33.97971343994141 3.516441345214844 31.33444404602051 2 28.50562477111816 2 L 17.1454029083252 2 M 17.1454029083252 0 L 28.50562477111816 0 C 32.05635452270508 0 35.34080505371094 1.882858276367188 37.13501358032227 4.946929931640625 L 42.69212341308594 14.43709945678711 C 44.51959228515625 17.55797004699707 44.51959228515625 21.4223690032959 42.69212341308594 24.54323959350586 L 37.13501358032227 34.03340911865234 C 35.34080505371094 37.09748077392578 32.05635452270508 38.98033905029297 28.50561332702637 38.98033905029297 L 17.1454029083252 38.98033905029297 C 13.59467315673828 38.98033905029297 10.31021499633789 37.09748077392578 8.516014099121094 34.03340911865234 L 2.958904266357422 24.54323959350586 C 1.131423950195312 21.4223690032959 1.131423950195312 17.55797004699707 2.958904266357422 14.43709945678711 L 8.516014099121094 4.946929931640625 C 10.31022262573242 1.882858276367188 13.59467315673828 0 17.1454029083252 0 Z" stroke="none" fill="#fff"/>
  </g>
  <path id="Icon_awesome-twitter" data-name="Icon awesome-twitter" d="M17.412,7.309c.012.172.012.345.012.517A11.239,11.239,0,0,1,6.108,19.143,11.24,11.24,0,0,1,0,17.357a8.228,8.228,0,0,0,.961.049,7.966,7.966,0,0,0,4.938-1.7A3.984,3.984,0,0,1,2.18,12.949a5.016,5.016,0,0,0,.751.062,4.207,4.207,0,0,0,1.047-.135,3.978,3.978,0,0,1-3.189-3.9V8.922a4.006,4.006,0,0,0,1.8.5,3.983,3.983,0,0,1-1.231-5.32,11.306,11.306,0,0,0,8.2,4.162,4.49,4.49,0,0,1-.1-.911,3.981,3.981,0,0,1,6.884-2.721,7.831,7.831,0,0,0,2.524-.961,3.967,3.967,0,0,1-1.749,2.192,7.974,7.974,0,0,0,2.29-.616,8.55,8.55,0,0,1-1.995,2.056Z" transform="translate(13.122 8.28)" fill="none" stroke="#fff" stroke-width="2"/>
</svg>
