<svg xmlns="http://www.w3.org/2000/svg" width="1439.677" height="759.655" viewBox="0 0 1439.677 759.655">
  <g id="llleaves_1_" data-name="llleaves (1)" transform="translate(-22.383 -26.885)" opacity="0.154">
    <g id="Group_48" data-name="Group 48" transform="translate(29.207 26.885)">
      <path id="Path_145" data-name="Path 145" d="M0,0H19.986A19.792,19.792,0,0,1,39.972,19.986H19.986A19.792,19.792,0,0,1,0,0Z" transform="matrix(-0.961, -0.276, 0.276, -0.961, 140.251, 30.23)" fill="#1abc6e" opacity="0.61"/>
      <path id="Path_146" data-name="Path 146" d="M0,0H21.682A21.472,21.472,0,0,1,43.365,21.682H21.682A21.472,21.472,0,0,1,0,0Z" transform="translate(682.61 161.009) rotate(-142)" fill="#1abc6e" opacity="0.67"/>
      <path id="Path_147" data-name="Path 147" d="M0,0H25.274A25.029,25.029,0,0,1,50.548,25.274H25.274A25.029,25.029,0,0,1,0,0Z" transform="matrix(-0.087, -0.996, 0.996, -0.087, 4.406, 278.394)" fill="#1abc6e" opacity="0.78"/>
      <path id="Path_148" data-name="Path 148" d="M0,0H16.49A16.33,16.33,0,0,1,32.98,16.49H16.49A16.33,16.33,0,0,1,0,0Z" transform="translate(1432.854 460.009) rotate(150)" fill="#1abc6e" opacity="0.51"/>
      <path id="Path_149" data-name="Path 149" d="M0,0H17.169A17,17,0,0,1,34.339,17.169H17.169A17,17,0,0,1,0,0Z" transform="translate(1428.552 121.977) rotate(159)" fill="#1abc6e" opacity="0.53"/>
      <path id="Path_150" data-name="Path 150" d="M0,0H23.584A23.355,23.355,0,0,1,47.169,23.584H23.584A23.355,23.355,0,0,1,0,0Z" transform="translate(463.138 757.485) rotate(-117)" fill="#1abc6e" opacity="0.72"/>
      <path id="Path_151" data-name="Path 151" d="M0,0H21.472A21.263,21.263,0,0,1,42.944,21.472H21.472A21.263,21.263,0,0,1,0,0Z" transform="translate(730.849 444.422) rotate(-144)" fill="#1abc6e" opacity="0.66"/>
      <path id="Path_152" data-name="Path 152" d="M0,0H21.162A20.956,20.956,0,0,1,42.323,21.162H21.162A20.956,20.956,0,0,1,0,0Z" transform="matrix(-0.848, -0.53, 0.53, -0.848, 785.644, 647.3)" fill="#1abc6e" opacity="0.65"/>
      <path id="Path_153" data-name="Path 153" d="M0,0H19.984A19.79,19.79,0,0,1,39.968,19.984H19.984A19.79,19.79,0,0,1,0,0Z" transform="translate(868.742 131.228) rotate(-164)" fill="#1abc6e" opacity="0.61"/>
      <path id="Path_154" data-name="Path 154" d="M0,0H17.27A17.1,17.1,0,0,1,34.54,17.27H17.27A17.1,17.1,0,0,1,0,0Z" transform="translate(1336.585 154.657) rotate(161)" fill="#1abc6e" opacity="0.53"/>
      <path id="Path_155" data-name="Path 155" d="M0,0H25.06a24.817,24.817,0,0,1,25.06,25.06H25.06A24.817,24.817,0,0,1,0,0Z" transform="translate(67.412 561.516) rotate(-97)" fill="#1abc6e" opacity="0.77"/>
      <path id="Path_156" data-name="Path 156" d="M0,0H24.974A24.731,24.731,0,0,1,49.948,24.974H24.974A24.731,24.731,0,0,1,0,0Z" transform="matrix(-0.156, -0.988, 0.988, -0.156, 93.369, 460.732)" fill="#1abc6e" opacity="0.77"/>
      <path id="Path_157" data-name="Path 157" d="M0,0H24.17a23.936,23.936,0,0,1,24.17,24.17H24.17A23.936,23.936,0,0,1,0,0Z" transform="matrix(-0.326, -0.946, 0.946, -0.326, 361.532, 677.906)" fill="#1abc6e" opacity="0.74"/>
      <path id="Path_158" data-name="Path 158" d="M0,0H18.448A18.269,18.269,0,0,1,36.9,18.448H18.448A18.269,18.269,0,0,1,0,0Z" transform="matrix(-0.998, 0.07, -0.07, -0.998, 1073.652, 98.031)" fill="#1abc6e" opacity="0.57"/>
      <path id="Path_159" data-name="Path 159" d="M0,0H16.916A16.752,16.752,0,0,1,33.832,16.916H16.916A16.752,16.752,0,0,1,0,0Z" transform="translate(1355.343 385.964) rotate(156)" fill="#1abc6e" opacity="0.52"/>
      <path id="Path_160" data-name="Path 160" d="M0,0H23.584A23.355,23.355,0,0,1,47.169,23.584H23.584A23.355,23.355,0,0,1,0,0Z" transform="translate(478.943 586.484) rotate(-117)" fill="#1abc6e" opacity="0.72"/>
      <path id="Path_161" data-name="Path 161" d="M0,0H17.316A17.148,17.148,0,0,1,34.632,17.316H17.316A17.148,17.148,0,0,1,0,0Z" transform="translate(1431.639 22.664) rotate(161)" fill="#1abc6e" opacity="0.53"/>
      <path id="Path_162" data-name="Path 162" d="M0,0H23.128A22.9,22.9,0,0,1,46.256,23.128H23.128A22.9,22.9,0,0,1,0,0Z" transform="translate(518.873 360.81) rotate(-123)" fill="#1abc6e" opacity="0.71"/>
      <path id="Path_163" data-name="Path 163" d="M0,0H25.274A25.029,25.029,0,0,1,50.548,25.274H25.274A25.029,25.029,0,0,1,0,0Z" transform="matrix(-0.087, -0.996, 0.996, -0.087, 9.404, 746.392)" fill="#1abc6e" opacity="0.78"/>
      <path id="Path_164" data-name="Path 164" d="M0,0H24.339A24.1,24.1,0,0,1,48.678,24.339H24.339A24.1,24.1,0,0,1,0,0Z" transform="matrix(-0.292, -0.956, 0.956, -0.292, 335.244, 401.948)" fill="#1abc6e" opacity="0.75"/>
      <path id="Path_165" data-name="Path 165" d="M0,0H22.88A22.658,22.658,0,0,1,45.76,22.88H22.88A22.658,22.658,0,0,1,0,0Z" transform="matrix(-0.588, -0.809, 0.809, -0.588, 137.987, 128.351)" fill="#1abc6e" opacity="0.7"/>
      <path id="Path_166" data-name="Path 166" d="M0,0H18.309A18.131,18.131,0,0,1,36.618,18.309H18.309A18.131,18.131,0,0,1,0,0Z" transform="translate(1062.011 542.309) rotate(173.999)" fill="#1abc6e" opacity="0.56"/>
      <path id="Path_167" data-name="Path 167" d="M0,0H20.844A20.642,20.642,0,0,1,41.689,20.844H20.844A20.642,20.642,0,0,1,0,0Z" transform="translate(816.844 241.865) rotate(-153)" fill="#1abc6e" opacity="0.64"/>
      <path id="Path_168" data-name="Path 168" d="M0,0H17.517A17.346,17.346,0,0,1,35.033,17.517H17.517A17.346,17.346,0,0,1,0,0Z" transform="translate(1164.591 727.711) rotate(163.999)" fill="#1abc6e" opacity="0.54"/>
      <path id="Path_169" data-name="Path 169" d="M0,0H23.128A22.9,22.9,0,0,1,46.256,23.128H23.128A22.9,22.9,0,0,1,0,0Z" transform="translate(532.724 462.81) rotate(-123)" fill="#1abc6e" opacity="0.71"/>
    </g>
    <g id="Group_49" data-name="Group 49" transform="translate(23.205 31.599)">
      <path id="Path_170" data-name="Path 170" d="M0,0H19.77a19.578,19.578,0,0,1,19.77,19.77H19.77A19.578,19.578,0,0,1,0,0Z" transform="translate(685.43 34.482) rotate(-167.001)" fill="none" stroke="#1abc6e" stroke-width="1.186" opacity="0.61"/>
      <path id="Path_171" data-name="Path 171" d="M0,0H18.911A18.727,18.727,0,0,1,37.821,18.911H18.911A18.727,18.727,0,0,1,0,0Z" transform="translate(1016.132 636.509) rotate(-178)" fill="none" stroke="#1abc6e" stroke-width="1.135" opacity="0.58"/>
      <path id="Path_172" data-name="Path 172" d="M0,0H24.761A24.52,24.52,0,0,1,49.522,24.761H24.761A24.52,24.52,0,0,1,0,0Z" transform="matrix(-0.191, -0.982, 0.982, -0.191, 242.987, 754.07)" fill="none" stroke="#1abc6e" stroke-width="1.486" opacity="0.76"/>
      <path id="Path_173" data-name="Path 173" d="M0,0H20.2a20,20,0,0,1,20.2,20.2H20.2A20,20,0,0,1,0,0Z" transform="translate(872.133 539.525) rotate(-161)" fill="none" stroke="#1abc6e" stroke-width="1.212" opacity="0.62"/>
      <path id="Path_174" data-name="Path 174" d="M0,0H17.342A17.174,17.174,0,0,1,34.685,17.342H17.342A17.174,17.174,0,0,1,0,0Z" transform="translate(1349.622 31.288) rotate(162)" fill="none" stroke="#1abc6e" stroke-width="1.041" opacity="0.53"/>
      <path id="Path_175" data-name="Path 175" d="M0,0H24.17a23.936,23.936,0,0,1,24.17,24.17H24.17A23.936,23.936,0,0,1,0,0Z" transform="matrix(-0.326, -0.946, 0.946, -0.326, 371.388, 499.192)" fill="none" stroke="#1abc6e" stroke-width="1.45" opacity="0.74"/>
      <path id="Path_176" data-name="Path 176" d="M0,0H21.774A21.563,21.563,0,0,1,43.548,21.774H21.774A21.563,21.563,0,0,1,0,0Z" transform="matrix(-0.766, -0.643, 0.643, -0.766, 715.589, 334.74)" fill="none" stroke="#1abc6e" stroke-width="1.306" opacity="0.67"/>
      <path id="Path_177" data-name="Path 177" d="M0,0H18.647A18.466,18.466,0,0,1,37.295,18.647H18.647A18.466,18.466,0,0,1,0,0Z" transform="matrix(-1, 0.017, -0.017, -1, 888.216, 24.399)" fill="none" stroke="#1abc6e" stroke-width="1.119" opacity="0.57"/>
      <path id="Path_178" data-name="Path 178" d="M0,0H19.808A19.616,19.616,0,0,1,39.617,19.808H19.808A19.616,19.616,0,0,1,0,0Z" transform="translate(461.828 28.804) rotate(-166)" fill="none" stroke="#1abc6e" stroke-width="1.189" opacity="0.61"/>
      <path id="Path_179" data-name="Path 179" d="M0,0H24.17a23.936,23.936,0,0,1,24.17,24.17H24.17A23.936,23.936,0,0,1,0,0Z" transform="matrix(-0.326, -0.946, 0.946, -0.326, 373.361, 290.191)" fill="none" stroke="#1abc6e" stroke-width="1.45" opacity="0.74"/>
      <path id="Path_180" data-name="Path 180" d="M0,0H25.274A25.029,25.029,0,0,1,50.548,25.274H25.274A25.029,25.029,0,0,1,0,0Z" transform="matrix(-0.087, -0.996, 0.996, -0.087, 4.406, 625.679)" fill="none" stroke="#1abc6e" stroke-width="1.516" opacity="0.78"/>
      <path id="Path_181" data-name="Path 181" d="M0,0H24.974A24.731,24.731,0,0,1,49.948,24.974H24.974A24.731,24.731,0,0,1,0,0Z" transform="matrix(-0.156, -0.988, 0.988, -0.156, 98.37, 336.019)" fill="none" stroke="#1abc6e" stroke-width="1.498" opacity="0.77"/>
      <path id="Path_182" data-name="Path 182" d="M0,0H22.067A21.853,21.853,0,0,1,44.135,22.067H22.067A21.853,21.853,0,0,1,0,0Z" transform="translate(670.911 547.52) rotate(-137)" fill="none" stroke="#1abc6e" stroke-width="1.324" opacity="0.68"/>
      <path id="Path_183" data-name="Path 183" d="M0,0H24.974A24.731,24.731,0,0,1,49.948,24.974H24.974A24.731,24.731,0,0,1,0,0Z" transform="matrix(-0.156, -0.988, 0.988, -0.156, 89.371, 665.018)" fill="none" stroke="#1abc6e" stroke-width="1.498" opacity="0.77"/>
      <path id="Path_184" data-name="Path 184" d="M0,0H19.546A19.357,19.357,0,0,1,39.093,19.546H19.546A19.357,19.357,0,0,1,0,0Z" transform="matrix(-0.985, -0.174, 0.174, -0.985, 944.692, 438.423)" fill="none" stroke="#1abc6e" stroke-width="1.173" opacity="0.6"/>
      <path id="Path_185" data-name="Path 185" d="M0,0H24.285A24.049,24.049,0,0,1,48.569,24.285H24.285A24.049,24.049,0,0,1,0,0Z" transform="matrix(-0.309, -0.951, 0.951, -0.309, 23.752, 159.249)" fill="none" stroke="#1abc6e" stroke-width="1.457" opacity="0.75"/>
      <path id="Path_186" data-name="Path 186" d="M0,0H24.874A24.632,24.632,0,0,1,49.748,24.874H24.874A24.632,24.632,0,0,1,0,0Z" transform="translate(105.866 226.056) rotate(-100)" fill="none" stroke="#1abc6e" stroke-width="1.492" opacity="0.76"/>
      <path id="Path_187" data-name="Path 187" d="M0,0H17.091A16.925,16.925,0,0,1,34.182,17.091H17.091A16.925,16.925,0,0,1,0,0Z" transform="translate(1338.5 259.924) rotate(158)" fill="none" stroke="#1abc6e" stroke-width="1.025" opacity="0.52"/>
      <path id="Path_188" data-name="Path 188" d="M0,0H16.49A16.33,16.33,0,0,1,32.98,16.49H16.49A16.33,16.33,0,0,1,0,0Z" transform="translate(1432.854 219.295) rotate(150)" fill="none" stroke="#1abc6e" stroke-width="0.989" opacity="0.51"/>
      <path id="Path_189" data-name="Path 189" d="M0,0H20.2a20,20,0,0,1,20.2,20.2H20.2A20,20,0,0,1,0,0Z" transform="translate(901.817 342.526) rotate(-161)" fill="none" stroke="#1abc6e" stroke-width="1.212" opacity="0.62"/>
      <path id="Path_190" data-name="Path 190" d="M0,0H18.027A17.852,17.852,0,0,1,36.055,18.027H18.027A17.852,17.852,0,0,1,0,0Z" transform="matrix(-0.988, 0.156, -0.156, -0.988, 1109.378, 343.484)" fill="none" stroke="#1abc6e" stroke-width="1.082" opacity="0.55"/>
    </g>
  </g>
</svg>
