<svg xmlns="http://www.w3.org/2000/svg" xmlns:xlink="http://www.w3.org/1999/xlink" width="219.588" height="58.251" viewBox="0 0 219.588 58.251">
  <defs>
    <clipPath id="clip-path">
      <path id="Path_9" data-name="Path 9" d="M135.719,65.176h6.751v6.751h-6.751Zm0,0" transform="translate(-135.719 -65.176)"/>
    </clipPath>
    <clipPath id="clip-path-2">
      <path id="Path_11" data-name="Path 11" d="M135.719,65.176h6.751v6.2h-6.751Zm0,0" transform="translate(-135.719 -65.176)"/>
    </clipPath>
  </defs>
  <g id="Logo_Dark" data-name="Logo Dark" transform="translate(-102.593 -56.047)">
    <g id="Group_3" data-name="Group 3" transform="translate(102.593 56.474)">
      <g id="Group_2" data-name="Group 2" transform="translate(0)">
        <g id="Group_1" data-name="Group 1" transform="translate(0)">
          <path id="Path_1" data-name="Path 1" d="M13.6,12.652c-1.065,0-2.125.08-3.27.08-1.713,0-3.346.08-5.064.08a1.641,1.641,0,0,1-.568-.246c-.166,0-.412,0-.492-.241a.3.3,0,0,0-.08-.246l.08-.08a.282.282,0,0,1,.08-.166c0-.08-.161-.08-.161-.08l.08-.08v-.166l-.08-.327c0-2.04.08-4,.08-6.043,0-1.959.08-4,.08-5.963V-12.832c0-2.04-.161-4-.161-6.043v-5.963c0-2.04.08-4,.08-6.043V-42.887c0-.08.08-.166,0-.246,0-.08-.08-.161-.08-.246s.161-.161.161-.161c0-.166-.08-.327-.08-.492a.992.992,0,0,1,.407-.407c.166,0,.246-.08.327-.08h.492c.327,0,.733.161,1.06.161,1.472,0,3.185-.08,4.657,0,.246.085.327.246.492.246a26.605,26.605,0,0,1,4.978.9,26.01,26.01,0,0,1,4.084,1.306c.166.08.412.166.492.327l.246.246a.61.61,0,0,0,.407.08,8.783,8.783,0,0,1,1.633.98l1.472,1.065c.246.161.407.327.653.487l.246.246a8.527,8.527,0,0,1,1.221,1.226c.166.161.166.246.327.327a.616.616,0,0,0,.492.161c.166,0,.407-.08.573-.568a3.742,3.742,0,0,1-.08-.412c.08-1.14.08-2.286.08-3.431,0-.653.08-1.226.08-1.879,0-.08.08-.161.08-.241v-.085h-.08v-.241c0-.085-.08-.246,0-.412a.676.676,0,0,1,.327-.487c.166,0,.246.08.407.08,1.391,0,2.858-.08,4.33-.08h4.737c.166,0,.327.161.492.246.08.08.161.08.161.161a1.06,1.06,0,0,1,.08.492c0,.161.166.327.166.487,0,2.7-.08,2.7-.08,5.39v5.39c0,2.7-.085,2.7-.085,5.39,0,2.778.166,2.778.166,5.476,0,4.9-.08,9.8-.08,14.7,0,2.045-.085,4.084-.085,6.129s.166,4.164.166,6.2-.08,4.084-.08,6.129c0,.161.08.407.08.487a.882.882,0,0,1-.653.653l-.573-.08c-1.145,0-2.286-.08-3.431-.08-1.633,0-3.346.08-5.064.08-.161,0-.327-.08-.487-.08a.551.551,0,0,1-.573-.327c0-.085.161-.246.161-.327a15.017,15.017,0,0,1-.241-1.879c0-.166.161-.327.161-.492v-.98c0-.407-.161-.819-.161-1.145V7.176l.08-.08-.08-.08H28.3a1.458,1.458,0,0,0,.166-.573C28.3,1.872,28.221-2.7,27.734-7.276c0-.166.08-.412,0-.573-.166-1.552-.573-3.024-.819-4.576v-.08c-.166-1.06-.327-2.205-.573-3.265-.161-.573-.407-1.065-.573-1.552,0-.246-.161-.166-.241-.327-.085-.407,0-.738-.085-.98a34.488,34.488,0,0,0-1.793-4c0-.161,0-.161-.085-.246-.161-.327-.327-.653-.487-.98l-.738-1.226c0-.08-.08-.161-.161-.241a.258.258,0,0,1-.166-.085l-.161-.161c-.492-.573-.9-1.391-1.472-1.959-.08-.166-.327-.166-.487-.332l-.246-.241A14.4,14.4,0,0,0,18.5-29.248a12.14,12.14,0,0,0-1.467-1.145A3.178,3.178,0,0,1,16.3-30.8c-.08,0-.08-.08-.161-.08-.08-.08-.327-.08-.492-.08v.08c-.246,0-.573,0-.653.246-.08.08.08.327,0,.573,0,.568-.08,1.14-.08,1.793v.327c0,1.879.08,3.758.08,5.636,0,1.8-.08,3.677-.08,5.556s.08,3.758.08,5.636V.073c0,1.8-.161,3.677-.161,5.556v6.284c0,.166.161.327.08.412a.521.521,0,0,1-.492.407,2.785,2.785,0,0,1-.814.08Zm0,0" transform="translate(-4.129 44.52)" fill="#fff"/>
        </g>
      </g>
    </g>
    <g id="Group_6" data-name="Group 6" transform="translate(160.656 56.474)">
      <g id="Group_5" data-name="Group 5" transform="translate(0)">
        <g id="Group_4" data-name="Group 4" transform="translate(0)">
          <path id="Path_2" data-name="Path 2" d="M3.256-10.873c0-1.879.166-3.758.166-5.636,0-1.793-.085-3.672-.085-5.551s-.161-3.758-.161-5.556c0-1.879.161-3.758.161-5.636-.08-1.547,0-3.1-.08-4.737,0-1.547-.08-3.1-.08-4.737,0-.161.08-.327.08-.487a1.62,1.62,0,0,0,.08-.573c.085-.246.166-.573.412-.653s.487.08.653.08c.161-.08.327,0,.487,0,1.8,0,3.511-.161,5.31-.161s3.511.161,5.31.161c1.713,0,3.511-.08,5.229-.08h5.3a2.317,2.317,0,0,1,.738.08.692.692,0,0,1,.568.653,2.306,2.306,0,0,1,.166.738c0,2.612-.08,5.144-.08,7.756v.492a.8.8,0,0,1-.653.573,3.353,3.353,0,0,1-.9,0,.282.282,0,0,1-.166.08c-1.633,0-3.346-.08-5.064-.08-1.633,0-3.346.161-4.983.161h-.98c-.568.166-1.06.407-1.14.98v6.616c0,1.959.08,3.838.08,5.8a3.3,3.3,0,0,0,.166.894.957.957,0,0,0,.814.653c.246.085.492.327.733.327,1.8,0,3.6-.161,5.4-.161h5.471a1.564,1.564,0,0,1,.573.161c.327.085.407.327.487.658,0,.241.08.487.08.733v7.676c0,.166.085.407,0,.573a.715.715,0,0,1-.568.492,2.991,2.991,0,0,1-.9.161h-.166c-1.633,0-3.346-.08-5.064-.08H15.589a4.268,4.268,0,0,0-.9.161,1.048,1.048,0,0,0-.894.98,3.333,3.333,0,0,0-.166.9V5.463c0,1.959.08,4,.08,5.963L13.63,12a.73.73,0,0,1-.819.568,7.112,7.112,0,0,1-1.306.085H4.648c-.327,0-.573.161-.9.08-.246-.08-.327-.407-.327-.653a1.17,1.17,0,0,1-.085-.573c0-1.879-.161-3.677-.161-5.551V.32c0-1.879.161-3.758.161-5.636v-5.556Zm0,0" transform="translate(-3.176 44.52)" fill="#fff"/>
        </g>
      </g>
    </g>
    <g id="Group_9" data-name="Group 9" transform="translate(189.728 56.544)">
      <g id="Group_8" data-name="Group 8" transform="translate(0 0)">
        <g id="Group_7" data-name="Group 7" transform="translate(0)">
          <path id="Path_3" data-name="Path 3" d="M23.6-10.476c0,6.7-.085,13.473-.166,20.254a2.843,2.843,0,0,1-.653,2.286,2.6,2.6,0,0,1-1.879.573,47.982,47.982,0,0,1-5.963-.085,4.178,4.178,0,0,1-2.205-.487c-.733-.492-.733-1.226-.653-2.045.08-.98,0-2.04,0-3.019V-30.49a2.972,2.972,0,0,0-.487-1.879,2.509,2.509,0,0,0-1.879-.407H6.853c-1.145,0-2.451-.08-3.19-.98a3.919,3.919,0,0,1-.487-2.371c0-1.552,0-3.185.08-4.737,0-1.14.08-2.446,1.065-3.019a3.237,3.237,0,0,1,1.793-.407c7.922-.246,15.844-.246,23.766.08A2.585,2.585,0,0,1,31.6-43.8a2.872,2.872,0,0,1,.653,1.8,40.913,40.913,0,0,1,.08,7.1,2.279,2.279,0,0,1-.487,1.472,2.62,2.62,0,0,1-1.552.573,34.608,34.608,0,0,1-4.084,0,4.839,4.839,0,0,0-1.552.161c-1.06.492-1.145,1.879-1.145,3.024C23.511-23.3,23.6-16.932,23.6-10.476Zm0,0" transform="translate(-3.176 44.465)" fill="#fff"/>
        </g>
      </g>
    </g>
    <g id="Group_12" data-name="Group 12" transform="translate(223.693 56.554)">
      <g id="Group_11" data-name="Group 11" transform="translate(0)">
        <g id="Group_10" data-name="Group 10" transform="translate(0)">
          <path id="Path_4" data-name="Path 4" d="M3.256-16.035c0-1.713-.08-3.511-.08-5.229,0-1.793.161-3.511.161-5.3,0-1.718-.161-3.511-.161-5.229v-5.31c0-1.713.08-3.511.08-5.224a4.394,4.394,0,0,1,.08-1.065,1.321,1.321,0,0,1,.573-.733c.246-.161.492-.08.819-.161a15.159,15.159,0,0,1,1.959-.166c2.125,0,4.245.246,6.37.246,3.511-.08,6.043-.166,6.37-.08.412,0,.819-.085,1.145-.085h.653a2.429,2.429,0,0,0,.653.166,14.478,14.478,0,0,1,2.045.573,17.979,17.979,0,0,1,1.959.568l1.14.492a4.166,4.166,0,0,1,.819.492,7.5,7.5,0,0,1,.819.327c.08.08.241,0,.327,0l1.793,1.221a9.108,9.108,0,0,0,.9.819,9.107,9.107,0,0,0,.9.819c.327.327.492.733.819,1.06a16.06,16.06,0,0,1,1.14,1.226c.246.327.492.733.738,1.14a11.247,11.247,0,0,1,.814,1.226l.08.327a13.051,13.051,0,0,1,.738,1.879,13.761,13.761,0,0,1,.487,1.718,8.169,8.169,0,0,1,.412,1.306,9.1,9.1,0,0,1,.161,1.472c0,.327.246.653.246,1.06h-.08v1.633c0,.327-.085.653-.085.98v.573l-.241,1.633c-.085.407-.085.819-.166,1.226a14.575,14.575,0,0,1-.733,1.633c-.166.407-.246.9-.412,1.306a6.854,6.854,0,0,0-.568,1.065c-.166.327-.246.733-.412,1.06a9.789,9.789,0,0,1-.814.98c-.327.492-.653.98-.98,1.391a.7.7,0,0,0-.085.407.789.789,0,0,0,0,.733,4.588,4.588,0,0,0,.573.738c.327.568.819,1.06,1.145,1.633a12.445,12.445,0,0,1,.653,1.552,4.907,4.907,0,0,1,.487.894,11.794,11.794,0,0,1,.412,1.8A11.053,11.053,0,0,1,37.315-3.7a4.715,4.715,0,0,1-.08,1.06V-1.17c0,2.045.08,4.084.08,6.043v6.7a1.632,1.632,0,0,1-.327.653l-.246.246a1.559,1.559,0,0,1-.814.246H27.434a2.306,2.306,0,0,1-.738-.166,1.241,1.241,0,0,1-.894-.894c0-.166.161-.412.161-.573,0-1.879-.08-3.758-.08-5.636s.08-3.758.08-5.636a10.285,10.285,0,0,1-.246-1.552A6.866,6.866,0,0,0,25.309-3.7a6.189,6.189,0,0,0-.733-1.226,4.526,4.526,0,0,0-1.472-.9,3.163,3.163,0,0,0-.819-.241A9.065,9.065,0,0,0,20.818-6.4h-.08c-.658,0-1.311.085-2.045.085-.653,0-1.306.08-2.04.08H15.589c-.161.08-.487,0-.653.166-.08.08-.161.161-.161.241a1.541,1.541,0,0,0-.085.653c-.08,1.718.085,3.511.085,5.229s-.085,3.511-.085,5.224.085,3.516.085,5.229c0,.246-.166.407-.246.653a.834.834,0,0,1-.407.819,1.376,1.376,0,0,1-.492.241c-.161,0-.407.085-.653.085-2.7,0-5.31-.085-7.922-.085-.246,0-.573.166-.733.085-.492-.085-.738-.492-.9-.98l-.246-.738c0-.161.161-.407.161-.573V-9.5C3.337-11.7,3.256-13.829,3.256-16.035Zm11.433-9.228c0,1.879.085,3.672.085,5.551,0,.246-.085.492-.085.819v.161c0,.166.166.246.166.327a1.381,1.381,0,0,0,.327.412,1.221,1.221,0,0,0,.573.246h1.959c.653-.085,1.306,0,1.959-.085a4.443,4.443,0,0,0,1.065,0,7.794,7.794,0,0,0,2.2-1.06,5.806,5.806,0,0,0,1.226-.653,7.527,7.527,0,0,0,.738-.819,6.886,6.886,0,0,0,.814-1.306,7.619,7.619,0,0,0,.492-1.226,3.451,3.451,0,0,0,.327-1.306,3.751,3.751,0,0,0,.246-.9,5.453,5.453,0,0,0-.085-1.14,11.467,11.467,0,0,0-.407-1.638,6.546,6.546,0,0,0-.733-1.547l-.819-.985c-.246-.327-.733-.487-1.06-.733-.407-.246-.738-.487-1.145-.733l-1.14-.492a3.53,3.53,0,0,0-.9-.161,1.7,1.7,0,0,0-.573-.246c-.246,0-.573.08-.819.08H15.915c-.161,0-.327.08-.487.08-.327,0-.492.332-.573.573,0,.412-.166.738-.166,1.145Zm0,0" transform="translate(-3.176 44.457)" fill="#25bd74"/>
        </g>
      </g>
    </g>
    <g id="Group_15" data-name="Group 15" transform="translate(260.194 56.047)">
      <g id="Group_14" data-name="Group 14" transform="translate(0 0)">
        <g id="Group_13" data-name="Group 13" transform="translate(0)">
          <path id="Path_5" data-name="Path 5" d="M1.586-16.821a6.3,6.3,0,0,1,.246-1.713c-.407-.166.573-3.758.738-4.33A29.121,29.121,0,0,1,5.429-30.3a30.935,30.935,0,0,1,1.793-2.693,29.888,29.888,0,0,1,4.9-5.229,4.516,4.516,0,0,1,.733-.568c.08-.085.246-.166.327-.327l2.532-1.718c.166-.08.492-.08.653-.246.246-.08.492-.241.738-.327.08-.08.08-.241.161-.241,0-.085.08,0,.166,0a1.77,1.77,0,0,1,.653-.412c.161-.161.407-.161.573-.327.161,0,.241-.161.327-.161.407-.166.814-.246,1.14-.412a5.171,5.171,0,0,0,1.065-.327c.161,0,.241-.241.407-.241.08-.085.246-.085.407-.085.08-.08.246,0,.327,0,.166-.08.327-.08.492-.161.161,0,.327-.166.487-.246a1.06,1.06,0,0,1,.492-.08l1.633-.412a5.916,5.916,0,0,0,1.145-.08c.241,0,.487-.161.733-.161.407-.085.733,0,1.145-.085a2.281,2.281,0,0,1,2.286.985,3.288,3.288,0,0,1,.246.814,36.237,36.237,0,0,1,.241,4.164,22.544,22.544,0,0,1-.08,2.371c-.08,1.552-.407,3.019-2.205,3.265h-.327c-.161.08-.327,0-.492,0l-1.14.246A17.937,17.937,0,0,0,15.471-24.5c-.161.327-.161.653-.327.98l-.327.573c0,.161.166.246.166.327,0,.161-.08.327.08.487a1,1,0,0,0,.407.412,3.368,3.368,0,0,0,.9,0c.327,0,.738.08,1.065.08h.327c.08-.08.161.08.241.08,1.552,0,3.1,0,4.657-.08a20.925,20.925,0,0,0,2.286-.08c.653,0,1.311.161,1.964.161h.161a6.9,6.9,0,0,1,1.879.166c.08.08.08.08.166.08a2.008,2.008,0,0,1,.894,1.386,4.486,4.486,0,0,1,.085,1.065v4.817a.276.276,0,0,1-.085.161c0,.085.166.166.166.327,0,.9,0,2.371-.819,3.024a3.11,3.11,0,0,1-2.04.573,8,8,0,0,1-1.386-.08c-1.472-.085-3.1.08-4.576.08-1.633,0-3.185-.08-4.737-.08a2.44,2.44,0,0,0-1.06.161.837.837,0,0,0-.492.407.723.723,0,0,0-.246.492c0,.161-.08.327,0,.492,0,.241.166.407.327.653v.241l.573.98a16.04,16.04,0,0,0,1.065,1.391A15.792,15.792,0,0,0,18.741-3.1c.327.241.487.653.814.98A26.525,26.525,0,0,0,22.579-.324,17.442,17.442,0,0,0,27.07,1.394a1.618,1.618,0,0,0,.653.08c.327.08.653.08.9.166a5.869,5.869,0,0,1,1.145.327,1.714,1.714,0,0,1,.653.487c.161.166.327.246.407.407a1.494,1.494,0,0,1,.246.9v.819a15.973,15.973,0,0,1,.08,1.959,18.826,18.826,0,0,1-.08,2.125,15.973,15.973,0,0,1-.08,1.959,5.266,5.266,0,0,1-.085,1.633c0,.166-.161.327-.241.492l-.246.161a.842.842,0,0,1-.412.166A2.766,2.766,0,0,1,28.7,13.4a1.6,1.6,0,0,1-.9-.166,4,4,0,0,0-.98,0,6.673,6.673,0,0,1-1.386-.327c-.08,0-.246.085-.327,0-.327,0-.573-.246-.9-.327-.161-.08-.407.08-.653,0a8.142,8.142,0,0,1-1.306-.407c-.819-.327-1.633-.733-2.451-.98a16.5,16.5,0,0,1-2.125-.733c-.161-.085-.327-.246-.161-.412-.492.412-2.939-1.633-3.265-1.879a5.6,5.6,0,0,1-.985-.487,8.239,8.239,0,0,0-.894-.738c-.653-.487-1.226-1.221-1.879-1.793a27.379,27.379,0,0,1-3.27-3.6l-.653-.9C6.243.168,6.082-.4,5.755-.977c-.166-.241-.327-.407-.492-.653l-.08-.327A18.857,18.857,0,0,1,3.791-4.489c-.327-1.06-.814-2.04-1.06-3.019l-.246-.819c-.08-.246,0-.492-.08-.733a3.408,3.408,0,0,1-.08-.9c-.08-.327-.327-.573-.412-.9-.08-.492-.08-.98-.161-1.472a14.694,14.694,0,0,1-.08-1.879A25.834,25.834,0,0,1,1.586-16.821Zm0,0" transform="translate(-1.586 44.851)" fill="#25bd74"/>
        </g>
      </g>
    </g>
    <g id="Group_18" data-name="Group 18" transform="translate(292.533 56.047)">
      <g id="Group_17" data-name="Group 17" transform="translate(0 0)">
        <g id="Group_16" data-name="Group 16" transform="translate(0)">
          <path id="Path_6" data-name="Path 6" d="M1.586-16.821a6.3,6.3,0,0,1,.246-1.713c-.407-.166.573-3.758.738-4.33A29.121,29.121,0,0,1,5.429-30.3a30.935,30.935,0,0,1,1.793-2.693,29.888,29.888,0,0,1,4.9-5.229,4.516,4.516,0,0,1,.733-.568c.08-.085.246-.166.327-.327l2.532-1.718c.166-.08.492-.08.653-.246.246-.08.492-.241.738-.327.08-.08.08-.241.161-.241,0-.085.08,0,.166,0a1.77,1.77,0,0,1,.653-.412c.161-.161.407-.161.573-.327.161,0,.241-.161.327-.161.407-.166.814-.246,1.14-.412a5.171,5.171,0,0,0,1.065-.327c.161,0,.241-.241.407-.241.08-.085.246-.085.407-.085.08-.08.246,0,.327,0,.166-.08.327-.08.492-.161.161,0,.327-.166.487-.246a1.06,1.06,0,0,1,.492-.08l1.633-.412a5.916,5.916,0,0,0,1.145-.08c.241,0,.487-.161.733-.161.407-.085.733,0,1.145-.085a2.281,2.281,0,0,1,2.286.985,3.288,3.288,0,0,1,.246.814,36.237,36.237,0,0,1,.241,4.164,22.544,22.544,0,0,1-.08,2.371c-.08,1.552-.407,3.019-2.205,3.265h-.327c-.161.08-.327,0-.492,0l-1.14.246A17.937,17.937,0,0,0,15.471-24.5c-.161.327-.161.653-.327.98l-.327.573c0,.161.166.246.166.327,0,.161-.08.327.08.487a1,1,0,0,0,.407.412,3.368,3.368,0,0,0,.9,0c.327,0,.738.08,1.065.08h.327c.08-.08.161.08.241.08,1.552,0,3.1,0,4.657-.08a20.925,20.925,0,0,0,2.286-.08c.653,0,1.311.161,1.964.161h.161a6.9,6.9,0,0,1,1.879.166c.08.08.08.08.166.08a2.008,2.008,0,0,1,.894,1.386,4.486,4.486,0,0,1,.085,1.065v4.817a.276.276,0,0,1-.085.161c0,.085.166.166.166.327,0,.9,0,2.371-.819,3.024a3.11,3.11,0,0,1-2.04.573,8,8,0,0,1-1.386-.08c-1.472-.085-3.1.08-4.576.08-1.633,0-3.185-.08-4.737-.08a2.44,2.44,0,0,0-1.06.161.837.837,0,0,0-.492.407.723.723,0,0,0-.246.492c0,.161-.08.327,0,.492,0,.241.166.407.327.653v.241l.573.98a16.04,16.04,0,0,0,1.065,1.391A15.792,15.792,0,0,0,18.741-3.1c.327.241.487.653.814.98A26.525,26.525,0,0,0,22.579-.324,17.442,17.442,0,0,0,27.07,1.394a1.618,1.618,0,0,0,.653.08c.327.08.653.08.9.166a5.869,5.869,0,0,1,1.145.327,1.714,1.714,0,0,1,.653.487c.161.166.327.246.407.407a1.494,1.494,0,0,1,.246.9v.819a15.973,15.973,0,0,1,.08,1.959,18.826,18.826,0,0,1-.08,2.125,15.973,15.973,0,0,1-.08,1.959,5.266,5.266,0,0,1-.085,1.633c0,.166-.161.327-.241.492l-.246.161a.842.842,0,0,1-.412.166A2.766,2.766,0,0,1,28.7,13.4a1.6,1.6,0,0,1-.9-.166,4,4,0,0,0-.98,0,6.673,6.673,0,0,1-1.386-.327c-.08,0-.246.085-.327,0-.327,0-.573-.246-.9-.327-.161-.08-.407.08-.653,0a8.142,8.142,0,0,1-1.306-.407c-.819-.327-1.633-.733-2.451-.98a16.5,16.5,0,0,1-2.125-.733c-.161-.085-.327-.246-.161-.412-.492.412-2.939-1.633-3.265-1.879a5.6,5.6,0,0,1-.985-.487,8.239,8.239,0,0,0-.894-.738c-.653-.487-1.226-1.221-1.879-1.793a27.379,27.379,0,0,1-3.27-3.6l-.653-.9C6.243.168,6.082-.4,5.755-.977c-.166-.241-.327-.407-.492-.653l-.08-.327A18.857,18.857,0,0,1,3.791-4.489c-.327-1.06-.814-2.04-1.06-3.019l-.246-.819c-.08-.246,0-.492-.08-.733a3.408,3.408,0,0,1-.08-.9c-.08-.327-.327-.573-.412-.9-.08-.492-.08-.98-.161-1.472a14.694,14.694,0,0,1-.08-1.879A25.834,25.834,0,0,1,1.586-16.821Zm0,0" transform="translate(-1.586 44.851)" fill="#25bd74"/>
        </g>
      </g>
    </g>
    <g id="Group_21" data-name="Group 21" transform="translate(145.39 79.356)">
      <g id="Group_20" data-name="Group 20" transform="translate(0 0)">
        <g id="Group_19" data-name="Group 19">
          <path id="Path_7" data-name="Path 7" d="M2.519-9.493c0-1.271-.05-2.592-.05-3.863v-3.858c0-1.321.05-2.592.05-3.908v-3.863c0-.2-.05-.437-.05-.633v-.146a1.14,1.14,0,0,1,.3-.538,2.982,2.982,0,0,1,.538-.2,1.707,1.707,0,0,1,.538-.1c1.17,0,2.341.1,3.516.1a4.858,4.858,0,0,1,.784.045,1.023,1.023,0,0,1,.779.688v.487c0,1.17.05,2.346.05,3.471,0,1.17-.146,2.341-.146,3.516v3.466c.1,1.175.1,2.3.1,3.471s.05,2.3.05,3.471V-.893c0,1.12-.05,2.3-.05,3.466s.05,2.3.05,3.471a2.028,2.028,0,0,1-.146.733,1.891,1.891,0,0,1-.2.538,1.052,1.052,0,0,1-.487.2c-.246,0-.392.1-.588.1-1.125,0-2.346-.05-3.471-.05A4.5,4.5,0,0,1,3.3,7.511a.841.841,0,0,1-.688-.733,1.66,1.66,0,0,1-.045-.492c0-1.316-.1-2.637-.1-3.953V-1.581c0-1.316.05-2.637.05-3.953Zm0,0" transform="translate(-2.469 26.598)" fill="#fff"/>
        </g>
      </g>
    </g>
    <g id="Group_22" data-name="Group 22" transform="translate(145.192 67.786)" clip-path="url(#clip-path)">
      <path id="Path_8" data-name="Path 8" d="M142.349,67.668a3.372,3.372,0,0,0-5.646-1.5,3.346,3.346,0,0,0-.98,2.23,3.273,3.273,0,0,0,.166,1.211,3.307,3.307,0,0,0,.819,1.331,3.184,3.184,0,0,0,.442.377,3.357,3.357,0,0,0,1.944.613c.09,0,.181-.005.271-.01a3.378,3.378,0,0,0,2.115-.98,2.355,2.355,0,0,0,.206-.226A3.37,3.37,0,0,0,142.349,67.668Zm0,0" transform="translate(-135.719 -65.176)" fill="#333437"/>
    </g>
    <g id="Group_23" data-name="Group 23" transform="translate(145.192 67.786)" clip-path="url(#clip-path-2)">
      <path id="Path_10" data-name="Path 10" d="M138.145,66.744c-.261.432-.216.99-.819.9s-1.03-.085-1.155.382a.669.669,0,0,1-.276.332,3.156,3.156,0,0,1,4.265-2.808,1.2,1.2,0,0,1-.3.678C139.074,67.015,138.4,66.317,138.145,66.744Zm1.2,3.948c-.256.427-.814-.045-1.5-.045a.66.66,0,0,0-.618.437,3.391,3.391,0,0,1-.412-.352,3.17,3.17,0,0,1-.769-1.241c.527-.206,1.386.3,1.753-.005.472-.382.558-1.241,1.115-1.115.377.085.472.643.216,1.246C138.959,70.014,139.5,70.426,139.341,70.692Zm2.125-.166c-.708.216-1.567-.628-1.135-.819.472-.216-.045-1.16.643-.99.563.141.98-.728,1.115-1.045A3.168,3.168,0,0,1,141.466,70.527Zm-.919-3.612c-.2,0-.6.085-.648.472s-.467.216-.427.6c.02.171.613.558.814-.045.131-.382.387-.216.512-.427S140.848,66.915,140.546,66.915Zm0,0" transform="translate(-135.668 -65.126)" fill="#fff"/>
    </g>
  </g>
</svg>
