<svg id="User_-_Login_Reg" data-name="User - Login/Reg" xmlns="http://www.w3.org/2000/svg" width="69.682" height="59.5" viewBox="0 0 69.682 59.5">
  <g id="Polygon_2" data-name="Polygon 2" fill="rgba(255,255,255,0.22)">
    <path d="M 46.52901077270508 58.50001525878906 L 23.15320205688477 58.50001525878906 C 19.97078323364258 58.50001525878906 16.99484252929688 56.79401397705078 15.38674259185791 54.04777526855469 L 3.821842670440674 34.29776382446289 C 2.179242610931396 31.49260330200195 2.179242610931396 28.00740432739258 3.821842670440674 25.20224380493164 L 15.38675212860107 5.452243804931641 C 16.99485206604004 2.706003904342651 19.97078323364258 1.000003814697266 23.15320205688477 1.000003814697266 L 46.52901077270508 1.000003814697266 C 49.71143341064453 1.000003814697266 52.68736267089844 2.706003904342651 54.29546356201172 5.452243804931641 L 65.86037445068359 25.20224380493164 C 67.50297546386719 28.00740432739258 67.50297546386719 31.49260330200195 65.86037445068359 34.29776382446289 L 54.29546356201172 54.04777526855469 C 52.68736267089844 56.79401397705078 49.71143341064453 58.50001525878906 46.52901077270508 58.50001525878906 Z" stroke="none"/>
    <path d="M 23.15320205688477 2.000003814697266 C 20.32437896728516 2.000003814697266 17.67910385131836 3.516448974609375 16.24967956542969 5.957538604736328 L 4.684783935546875 25.70753860473633 C 3.224678039550781 28.20102691650391 3.224678039550781 31.29898071289062 4.684783935546875 33.79245758056641 L 16.24967956542969 53.5424690246582 C 17.67910385131836 55.98355865478516 20.32437896728516 57.50000381469727 23.15320205688477 57.50000381469727 L 46.52901458740234 57.50000381469727 C 49.35783386230469 57.50000381469727 52.00310516357422 55.98355865478516 53.43252563476562 53.5424690246582 L 64.9974365234375 33.79245758056641 C 66.45752716064453 31.29898071289062 66.45752716064453 28.20102691650391 64.9974365234375 25.70755004882812 L 53.43252563476562 5.957538604736328 C 52.00310516357422 3.516448974609375 49.35783386230469 2.000003814697266 46.52901458740234 2.000003814697266 L 23.15320205688477 2.000003814697266 M 23.15320205688477 3.814697265625e-06 L 46.52901458740234 3.814697265625e-06 C 50.07974624633789 3.814697265625e-06 53.36418914794922 1.882858276367188 55.15840148925781 4.946926116943359 L 66.72331237792969 24.69693756103516 C 68.55078125 27.81780433654785 68.55078125 31.68220329284668 66.72331237792969 34.80307006835938 L 55.15840148925781 54.55308151245117 C 53.36418914794922 57.61714935302734 50.07974624633789 59.50000381469727 46.52901458740234 59.50000381469727 L 23.15320205688477 59.50000381469727 C 19.60247039794922 59.50000381469727 16.31801223754883 57.61714935302734 14.5238037109375 54.55308151245117 L 2.958900451660156 34.80307006835938 C 1.131423950195312 31.68220329284668 1.131423950195312 27.81780433654785 2.958900451660156 24.69692611694336 L 14.5238037109375 4.946926116943359 C 16.31801223754883 1.882858276367188 19.60247039794922 3.814697265625e-06 23.15320205688477 3.814697265625e-06 Z" stroke="none" fill="#fff"/>
  </g>
  <g id="Icon_feather-user" data-name="Icon feather-user" transform="translate(22.841 16.25)">
    <path id="Path_14" data-name="Path 14" d="M30,31.5v-3a6,6,0,0,0-6-6H12a6,6,0,0,0-6,6v3" transform="translate(-6 -4.5)" fill="none" stroke="#fff" stroke-linecap="round" stroke-linejoin="round" stroke-width="2.5"/>
    <path id="Path_15" data-name="Path 15" d="M24,10.5a6,6,0,1,1-6-6,6,6,0,0,1,6,6Z" transform="translate(-6 -4.5)" fill="none" stroke="#fff" stroke-linecap="round" stroke-linejoin="round" stroke-width="2.5"/>
  </g>
</svg>
