<svg xmlns="http://www.w3.org/2000/svg" width="25.263" height="25.245" viewBox="0 0 25.263 25.245">
  <g id="Icon_ionic-ios-rocket" data-name="Icon ionic-ios-rocket" transform="translate(-2.362 -2.356)">
    <path id="Path_52" data-name="Path 52" d="M26.488,3.687A.247.247,0,0,0,26.3,3.5c-3.039-.743-10.061,1.9-13.865,5.709A16.443,16.443,0,0,0,10.59,11.39a6.88,6.88,0,0,0-3.346.419c-2.821,1.24-3.642,4.48-3.871,5.871a.5.5,0,0,0,.547.581l4.53-.5a10.071,10.071,0,0,0,.061,1.022,1.014,1.014,0,0,0,.3.62l1.754,1.754a1.014,1.014,0,0,0,.62.3,10.052,10.052,0,0,0,1.017.061l-.5,4.525a.5.5,0,0,0,.581.547c1.391-.223,4.636-1.045,5.871-3.866a6.911,6.911,0,0,0,.425-3.335,16.469,16.469,0,0,0,2.19-1.849C24.589,13.742,27.22,6.877,26.488,3.687Zm-9.116,8.932a2.386,2.386,0,1,1,3.374,0A2.384,2.384,0,0,1,17.372,12.619Z" transform="translate(0 0)" fill="none" stroke="#fff" stroke-width="2"/>
    <path id="Path_53" data-name="Path 53" d="M10.937,26.053h0a2.119,2.119,0,0,1-1.106.447A1.5,1.5,0,0,1,8.1,24.768a2.077,2.077,0,0,1,.441-1.1l.006-.006a.187.187,0,0,0-.156-.318,2.568,2.568,0,0,0-1.5.732c-1.005,1.005-1.1,4.737-1.1,4.737s3.737-.095,4.743-1.1a2.551,2.551,0,0,0,.732-1.5A.191.191,0,0,0,10.937,26.053Z" transform="translate(-0.498 -4.105)" fill="none" stroke="#fff" stroke-width="2"/>
  </g>
</svg>
