<svg xmlns="http://www.w3.org/2000/svg" width="85.984" height="73.42" viewBox="0 0 85.984 73.42">
  <g id="Group_364" data-name="Group 364" transform="translate(0 294.056)">
    <g id="Polygon_1" data-name="Polygon 1" transform="translate(0 -294.056)" fill="none">
      <path d="M58.755,0a10,10,0,0,1,8.629,4.947l15.64,26.71a10,10,0,0,1,0,10.106l-15.64,26.71a10,10,0,0,1-8.629,4.947H27.229A10,10,0,0,1,18.6,68.473L2.959,41.763a10,10,0,0,1,0-10.106L18.6,4.947A10,10,0,0,1,27.229,0Z" stroke="none"/>
      <path d="M 27.2286262512207 1.999992370605469 C 24.39980316162109 1.999992370605469 21.75452423095703 3.516448974609375 20.32510375976562 5.957542419433594 L 4.684776306152344 32.6673469543457 C 3.224693298339844 35.16083145141602 3.224693298339844 38.25878524780273 4.684776306152344 40.75225830078125 L 20.32508850097656 67.46207427978516 C 21.75452423095703 69.90316772460938 24.39980316162109 71.41962432861328 27.22861480712891 71.41962432861328 L 58.75526428222656 71.41962432861328 C 61.58407592773438 71.41962432861328 64.22933959960938 69.90316772460938 65.65877532958984 67.46207427978516 L 81.29910278320312 40.75226974487305 C 82.75918579101562 38.25878524780273 82.75918579101562 35.16083145141602 81.29910278320312 32.6673469543457 L 65.65877532958984 5.957542419433594 C 64.22935485839844 3.516448974609375 61.58407592773438 1.999992370605469 58.75526428222656 1.999992370605469 L 27.2286262512207 1.999992370605469 M 27.2286262512207 -7.62939453125e-06 L 58.75526428222656 -7.62939453125e-06 C 62.30599212646484 -7.62939453125e-06 65.59043884277344 1.882858276367188 67.38465118408203 4.946929931640625 L 83.02497863769531 31.65673446655273 C 84.85245513916016 34.77760696411133 84.85245513916016 38.64200973510742 83.02497863769531 41.76288604736328 L 67.38465118408203 68.47268676757812 C 65.59043884277344 71.5367431640625 62.30599212646484 73.41962432861328 58.75526428222656 73.41962432861328 L 27.22861480712891 73.41962432861328 C 23.67787551879883 73.41962432861328 20.39342498779297 71.5367431640625 18.59921264648438 68.47268676757812 L 2.958900451660156 41.76287078857422 C 1.131423950195312 38.64200973510742 1.131423950195312 34.77760696411133 2.958900451660156 31.65673446655273 L 18.59922790527344 4.946929931640625 C 20.39344024658203 1.882858276367188 23.67789077758789 -7.62939453125e-06 27.2286262512207 -7.62939453125e-06 Z" stroke="none" fill="#fff"/>
    </g>
    <g id="Icon_feather-search" data-name="Icon feather-search" transform="translate(29.492 -270.846)">
      <path id="Path_12" data-name="Path 12" d="M28.5,16.5a12,12,0,1,1-12-12,12,12,0,0,1,12,12Z" transform="translate(-4.5 -4.5)" fill="none" stroke="#fff" stroke-linecap="round" stroke-linejoin="round" stroke-width="2.5"/>
      <path id="Path_13" data-name="Path 13" d="M31.5,31.5l-6.525-6.525" transform="translate(-4.5 -4.5)" fill="none" stroke="#fff" stroke-linecap="round" stroke-linejoin="round" stroke-width="2.5"/>
    </g>
  </g>
</svg>
