<svg xmlns="http://www.w3.org/2000/svg" width="972.067" height="1073.679" viewBox="0 0 972.067 1073.679">
  <g id="wwwhirl" transform="translate(86.575 -3.473)" opacity="0.301">
    <path id="Path_95" data-name="Path 95" d="M-18.573,450.217c25.318-27.189,78.154-125.57,121.528-130.509s42.782,115.225,86.668,106.8,81.264-146.74,123.986-147.242,37.707,149.769,81.082,144.829S476.8,271.586,521.806,255.554s47.391,83.85,88.9,91.587,66.841-48.558,110.355-54.449,53,45.693,98.512,26.175S897.33,196.023,939.54,199.007s39.877,135,82.646,134.181,97.094-109.341,122.646-138.115" transform="translate(1016.035 337.505) rotate(132)" fill="none" stroke="#0d5a35" stroke-linecap="round" stroke-width="2"/>
    <path id="Path_96" data-name="Path 96" d="M-17.852,433.074c25-26.162,76.984-120.831,120.007-125.578s42.985,110.9,86.5,102.8,79.974-141.2,122.369-141.681S349.132,412.75,392.154,408,472.942,261.248,517.53,245.827s47.415,80.7,88.648,88.156,66.111-46.72,109.267-52.381,52.8,43.983,97.883,25.207,76.6-118.209,118.5-115.33,40.193,129.928,82.634,129.146,95.855-105.21,121.081-132.9" transform="translate(992.364 301.189) rotate(129)" fill="none" stroke="#0d5a35" stroke-linecap="round" stroke-width="2"/>
    <path id="Path_97" data-name="Path 97" d="M-16.954,414.66c24.629-25.13,75.591-116.13,118.22-120.622s43.3,106.777,86.4,99.057,78.43-135.727,120.464-136.112,38.67,138.755,81.3,134.262,79.2-141.066,123.319-155.827,47.509,77.733,88.438,84.975,65.264-44.839,108.021-50.212,52.626,42.411,97.21,24.423S881.64,181,923.206,183.839s40.651,125.084,82.727,124.405,94.4-101.067,119.24-127.663" transform="translate(965.912 266.858) rotate(126)" fill="none" stroke="#0d5a35" stroke-linecap="round" stroke-width="2"/>
    <path id="Path_98" data-name="Path 98" d="M-15.9,112.555C8.305,88.457,58.086,1.068,100.275-3.116s43.707,102.874,86.334,95.586S263.253-37.864,304.884-38.1,344.248,95.527,386.436,91.342,463.807-44.126,507.39-58.185s47.652,74.943,88.246,82.044,64.3-42.93,106.608-47.961S754.694,16.873,798.716-.29s73.641-109.061,114.833-106.192S954.769,14,996.44,13.48s92.727-96.934,117.128-122.443" transform="translate(699.852 80.944) rotate(123)" fill="none" stroke="#0d5a35" stroke-linecap="round" stroke-width="2"/>
    <path id="Path_99" data-name="Path 99" d="M-14.7,108.227C9.02,85.153,57.471,1.3,99.168-2.529s44.172,99.19,86.275,92.377S260.078-35.2,301.26-35.23,341.415,93.529,383.112,89.7,458.418-40.285,501.405-53.608s47.821,72.334,88.044,79.356S652.667-15.258,694.475-19.9s52.258,39.672,95.65,23.364S861.982-101.13,902.758-98.177,944.631,17.941,985.849,17.639,1076.7-75.2,1100.6-99.627" transform="translate(674.621 72.251) rotate(120)" fill="none" stroke="#0d5a35" stroke-linecap="round" stroke-width="2"/>
    <path id="Path_100" data-name="Path 100" d="M-13.392,104.068C9.8,82.005,56.785,1.6,97.935-1.833s44.673,95.728,86.192,89.426S256.546-32.3,297.226-32.081,338.24,92.08,379.39,88.648s73.03-124.641,115.355-137.2,48,69.9,87.8,76.905,62.02-39.081,103.271-43.3,52.037,38.5,94.731,23.065,69.888-100.225,110.2-97.136,42.578,112,83.292,111.964,88.772-88.794,112.132-112.161" transform="translate(649.554 65.806) rotate(117)" fill="none" stroke="#0d5a35" stroke-linecap="round" stroke-width="2"/>
    <path id="Path_101" data-name="Path 101" d="M-11.986,100.088C10.629,79.018,56.024,1.956,96.567-1.046s45.182,92.484,86.056,86.723S252.64-29.213,292.763-28.7s41.908,119.83,82.451,116.828S445.778-31.332,487.373-43.115s48.157,67.648,87.5,74.68S635.58-5.6,676.214-9.357s51.774,37.442,93.7,22.9,67.751-95.974,107.544-92.7,43.308,108.139,83.461,108.4,86.509-84.831,109.274-107.155" transform="translate(624.753 61.559) rotate(114)" fill="none" stroke="#0d5a35" stroke-linecap="round" stroke-width="2"/>
    <path id="Path_102" data-name="Path 102" d="M-10.508,96.291C11.485,76.192,55.181,2.361,95.058-.186S140.734,89.27,180.9,84.068,248.349-25.986,287.857-25.153,330.663,90.611,370.54,88.064,438.467-26.382,479.266-37.376s48.284,65.561,87.107,72.669S625.662.013,665.618-3.258s51.455,36.5,92.544,22.852,65.463-91.855,104.681-88.367S906.875,35.743,946.41,36.334s84.074-80.964,106.2-102.27" transform="matrix(-0.358, 0.934, -0.934, -0.358, 600.323, 59.457)" fill="none" stroke="#0d5a35" stroke-linecap="round" stroke-width="2"/>
    <path id="Path_103" data-name="Path 103" d="M-8.981,92.682C12.349,73.526,54.254,2.8,93.4.73s46.131,86.633,85.526,82S243.668-22.664,282.5-21.484,326.178,90.471,365.326,88.4,430.475-21.228,470.411-31.431s48.36,63.634,86.607,70.854S614.784,6,654,3.226s51.07,35.663,91.254,22.9S808.295-61.752,846.88-58.016,891.606,43.113,930.461,44.061s81.481-77.21,102.924-97.528" transform="translate(576.356 59.433) rotate(108)" fill="none" stroke="#0d5a35" stroke-linecap="round" stroke-width="2"/>
    <path id="Path_104" data-name="Path 104" d="M-7.428,89.261C13.2,71.015,53.242,3.271,91.6,1.683s46.524,84.007,85.085,79.958S238.6-19.295,276.694-17.75,321.188,90.644,359.545,89.057,421.8-15.951,460.805-25.37s48.367,61.856,85.979,69.218,56.146-31.622,94.558-33.88,50.609,34.918,89.822,23.039,60.51-84.066,98.4-80.06,45.362,97.968,83.477,99.289,78.75-73.583,99.473-92.947" transform="matrix(-0.259, 0.966, -0.966, -0.259, 552.951, 61.417)" fill="none" stroke="#0d5a35" stroke-linecap="round" stroke-width="2"/>
    <path id="Path_105" data-name="Path 105" d="M-5.87,86.025C14.03,68.656,52.144,3.755,89.647,2.656s46.835,81.564,84.5,78.093,59-96.674,96.293-94.754S315.671,91.062,353.174,89.963s59.264-100.6,97.282-109.244,48.291,60.217,85.206,67.743S590.1,18.59,627.648,16.844,677.711,51.1,715.891,40.081s57.887-80.415,95.022-76.124S856.83,58.976,894.142,60.68s75.9-70.1,95.87-88.544" transform="matrix(-0.208, 0.978, -0.978, -0.208, 530.198, 65.328)" fill="none" stroke="#0d5a35" stroke-linecap="round" stroke-width="2"/>
    <path id="Path_106" data-name="Path 106" d="M-4.328,82.969C14.813,66.441,50.959,4.246,87.549,3.631s47.044,79.29,83.753,76.388S227.314-12.6,263.752-10.3,309.614,91.659,346.2,91.044s56.209-96.4,93.179-104.295,48.119,58.7,84.274,66.406S576.308,24.968,612.93,23.73s49.425,33.662,86.513,23.481,55.194-76.935,91.513-72.351,46.367,92.268,82.816,94.357,72.942-66.761,92.137-84.33" transform="translate(508.179 71.08) rotate(99)" fill="none" stroke="#0d5a35" stroke-linecap="round" stroke-width="2"/>
    <path id="Path_107" data-name="Path 107" d="M-2.824,80.087C15.537,64.359,49.691,4.732,85.309,4.591s47.137,77.17,82.832,74.821,52.988-88.765,88.506-86.1,46.365,99.051,81.983,98.91S391.746-.193,427.612-7.36s47.837,57.3,83.172,65.185,50.795-26.575,86.434-27.318,48.69,33.126,84.633,23.751S734.3-19.371,769.745-14.493s46.7,89.7,82.221,92.165,69.906-63.582,88.3-80.314" transform="translate(486.976 78.574) rotate(96)" fill="none" stroke="#0d5a35" stroke-linecap="round" stroke-width="2"/>
    <path id="Path_108" data-name="Path 108" d="M-1.375,77.369C16.189,62.4,48.342,5.2,82.932,5.52s47.1,75.183,81.726,73.366S214.605-6.234,249.147-3.2s46.722,96.322,81.312,96.638S380.469,4.786,415.18-1.686,462.619,54.3,497.071,62.372s48.879-25.04,83.48-25.306,47.854,32.635,82.6,24.03S712.841-9.4,747.345-4.237s46.883,87.285,81.428,90.122,66.809-60.565,84.39-76.5" transform="translate(466.66 87.719) rotate(93)" fill="none" stroke="#0d5a35" stroke-linecap="round" stroke-width="2"/>
    <path id="Path_109" data-name="Path 109" d="M0,74.8C16.756,60.553,46.915,5.653,80.427,6.4s46.915,73.313,80.427,72S207.769-3.272,241.28.1s46.915,93.75,80.427,94.5S368.622,9.516,402.133,3.7s46.915,54.75,80.427,63,46.916-23.587,80.427-23.4S609.9,75.478,643.413,67.6,690.328.066,723.839,5.5s46.915,85.013,80.427,88.2,63.671-57.712,80.427-72.9" transform="translate(447.304 98.41) rotate(90)" fill="none" stroke="#0d5a35" stroke-linecap="round" stroke-width="2"/>
    <path id="Path_110" data-name="Path 110" d="M1.287,72.377C17.227,58.8,45.417,6.072,77.8,7.228s46.581,71.537,78.93,70.7S200.647-.5,233.077,3.2s46.933,91.312,79.317,92.467,43.857-81.726,76.128-86.92S434.784,62.32,467.3,70.732s44.914-22.22,77.289-21.609S590.46,80.857,622.7,73.667s44.158-64.745,76.623-59.054,46.782,82.857,79.209,86.372,60.513-55.024,76.438-69.5" transform="translate(428.97 110.535) rotate(87)" fill="none" stroke="#0d5a35" stroke-linecap="round" stroke-width="2"/>
    <path id="Path_111" data-name="Path 111" d="M2.471,70.076C17.6,57.14,43.853,6.452,75.068,7.981S121.156,77.816,152.3,77.413s40.968-75.357,72.27-71.37,46.763,88.982,77.978,90.51S343.407,18,374.4,13.379s45.475,52.446,76.938,61,42.887-20.941,74.084-19.939,44.729,31.3,75.659,24.746S642.52,17.073,673.89,22.993s46.474,80.8,77.77,84.608,57.355-52.5,72.448-66.311" transform="translate(411.715 123.976) rotate(84)" fill="none" stroke="#0d5a35" stroke-linecap="round" stroke-width="2"/>
    <path id="Path_112" data-name="Path 112" d="M3.541,67.884c14.312-12.34,38.688-61.1,68.7-59.232s45.432,68.188,75.343,68.18,38.1-72.463,68.227-68.217,46.4,86.735,76.408,88.6,37.933-75.56,67.631-79.651S404.4,68.905,434.762,77.575s40.845-19.749,70.826-18.4,43.485,30.856,73.084,24.893,38.764-59.633,68.994-53.515,45.986,78.806,76.109,82.882,54.216-50.125,68.483-63.316" transform="translate(395.587 138.617) rotate(81)" fill="none" stroke="#0d5a35" stroke-linecap="round" stroke-width="2"/>
    <path id="Path_113" data-name="Path 113" d="M4.488,65.784C18,54,40.553,7.072,69.322,9.231S113.935,75.8,142.58,76.15s35.313-69.727,64.24-65.258S252.659,95.437,281.428,97.6s35.108-72.728,63.484-76.339,43.5,50.248,72.718,59,38.8-18.643,67.534-16.978,42.144,30.4,70.4,24.97S591.72,30.96,620.77,37.242,666.085,114.1,695,118.407s51.113-47.9,64.564-60.51" transform="matrix(0.208, 0.978, -0.978, 0.208, 380.637, 154.341)" fill="none" stroke="#0d5a35" stroke-linecap="round" stroke-width="2"/>
    <path id="Path_114" data-name="Path 114" d="M5.305,63.758C18.02,52.5,38.832,7.3,66.336,9.713s43.631,64.969,70.988,65.624S169.963,8.2,197.653,12.855s45.08,82.389,72.584,84.8,32.4-70.041,59.435-73.222,42.314,49.148,70.35,57.953S436.78,64.765,464.245,66.7,504.958,96.6,531.85,91.665s33.641-55.082,61.477-48.675,44.461,74.942,72.138,79.432,48.063-45.822,60.711-57.88" transform="matrix(0.259, 0.966, -0.966, 0.259, 366.9, 171.02)" fill="none" stroke="#0d5a35" stroke-linecap="round" stroke-width="2"/>
    <path id="Path_115" data-name="Path 115" d="M5.988,61.788c11.939-10.77,31.087-54.317,57.306-51.7s42.49,63.358,68.544,64.275S161.922,9.7,188.351,14.493s44.126,80.24,70.345,82.86,29.811-67.481,55.5-70.281,41,48.025,67.824,56.841,34.734-16.682,60.908-14.526,39.2,29.378,64.726,24.875,31.216-52.985,57.81-46.492,43.427,73.022,69.841,77.656,45.082-43.869,56.946-55.413" transform="translate(354.41 188.526) rotate(72)" fill="none" stroke="#0d5a35" stroke-linecap="round" stroke-width="2"/>
    <path id="Path_116" data-name="Path 116" d="M6.532,59.857C17.715,49.546,35.289,7.58,60.208,10.363s41.2,61.72,65.936,62.853,27.663-62.3,52.812-57.415,42.982,78.074,67.9,80.857,27.365-65.03,51.711-67.5,39.576,46.867,65.151,55.651,32.736-15.818,57.606-13.485,37.6,28.8,61.771,24.684,28.9-50.986,54.226-44.452,42.219,71.082,67.351,75.816,42.183-42.033,53.283-53.094" transform="matrix(0.358, 0.934, -0.934, 0.358, 343.191, 206.729)" fill="none" stroke="#0d5a35" stroke-linecap="round" stroke-width="2"/>
    <path id="Path_117" data-name="Path 117" d="M6.939,57.945C17.388,48.066,33.484,7.626,57.1,10.526s39.76,60.037,63.181,61.34,25.382-60.022,49.238-55.088,41.656,75.869,65.268,78.769S259.847,32.882,282.85,30.7,320.888,76.357,345.2,85.067s30.771-15.025,54.331-12.561,35.944,28.171,58.756,24.39,26.694-49.07,50.741-42.539,40.845,69.1,64.683,73.889,39.376-40.3,49.739-50.9" transform="translate(333.259 225.504) rotate(66)" fill="none" stroke="#0d5a35" stroke-linecap="round" stroke-width="2"/>
    <path id="Path_118" data-name="Path 118" d="M7.211,56.036c9.741-9.47,24.456-48.427,46.758-45.456S92.158,68.874,114.261,70.3s23.248-57.81,45.8-52.872S200.224,91.033,222.526,94s22.919-60.367,44.589-62.311,36.4,44.388,59.425,52.978,28.848-14.3,51.1-11.745,34.223,27.477,55.694,23.987,24.611-47.22,47.365-40.736,39.317,67.058,61.854,71.856,36.673-38.655,46.324-48.827" transform="translate(324.631 244.713) rotate(63)" fill="none" stroke="#0d5a35" stroke-linecap="round" stroke-width="2"/>
    <path id="Path_119" data-name="Path 119" d="M7.351,54.113c9.061-9.08,22.5-46.584,43.491-43.584S87.339,67,108.132,68.511,129.4,12.866,150.65,17.765s38.5,71.259,59.5,74.259,20.929-58.113,41.28-59.861,34.672,43.046,56.4,51.471S334.808,70.01,355.749,72.6s32.453,26.715,52.6,23.475S431,50.66,452.461,57.051s37.646,64.938,58.881,69.7,34.08-37.081,43.049-46.84" transform="translate(317.309 264.233) rotate(60)" fill="none" stroke="#0d5a35" stroke-linecap="round" stroke-width="2"/>
    <path id="Path_120" data-name="Path 120" d="M7.367,52.16C15.776,43.454,28.031,7.389,47.73,10.374s34.695,54.567,54.19,56.114,19.431-53.5,39.388-48.689,36.708,68.818,56.406,71.8,19.095-55.884,38.147-57.475,32.867,41.624,53.3,49.839,25.152-13,44.795-10.407S364.6,97.442,383.453,94.413s20.823-43.646,40.983-37.393,35.847,62.726,55.786,67.41,31.6-35.564,39.92-44.923" transform="translate(311.297 283.929) rotate(57)" fill="none" stroke="#0d5a35" stroke-linecap="round" stroke-width="2"/>
    <path id="Path_121" data-name="Path 121" d="M7.266,50.161c7.787-8.341,18.962-42.97,37.378-40.039s32.8,52.561,51.015,54.109S113.4,12.862,132.075,17.554s34.786,66.266,53.2,69.2,17.414-53.658,35.192-55.127,31,40.114,50.141,48.074S294,67.28,312.357,69.834s28.8,24.975,46.382,22.123,19.119-41.889,37.99-35.814,33.937,60.407,52.589,64.973,29.245-34.087,36.94-43.057" transform="translate(306.58 303.678) rotate(54)" fill="none" stroke="#0d5a35" stroke-linecap="round" stroke-width="2"/>
    <path id="Path_122" data-name="Path 122" d="M7.058,48.1C14.253,40.119,24.445,6.938,41.6,9.779S72.423,60.226,89.379,61.741s16.205-49.22,33.6-44.691,32.757,63.59,49.907,66.431S188.773,32.066,205.3,30.687s29.077,38.51,46.935,46.174S273.924,65,291.022,67.474s26.947,23.993,43.284,21.288,17.539-40.129,35.132-34.274,31.932,57.971,49.313,62.38,27.006-32.631,34.113-41.219" transform="translate(303.147 323.343) rotate(51)" fill="none" stroke="#0d5a35" stroke-linecap="round" stroke-width="2"/>
    <path id="Path_123" data-name="Path 123" d="M6.754,45.976c6.634-7.63,15.933-39.342,31.841-36.623s28.8,48.22,44.517,49.671,14.8-47.04,30.947-42.708S144.7,77.1,160.607,79.815,175.1,30.678,190.417,29.362s27.12,36.811,43.7,44.139,20.047-11.338,35.9-8.965,25.081,22.936,40.21,20.353,16.078-38.35,32.41-32.751,29.852,55.411,45.98,59.628,24.886-31.183,31.434-39.389" transform="translate(300.983 342.805) rotate(48)" fill="none" stroke="#0d5a35" stroke-linecap="round" stroke-width="2"/>
    <path id="Path_124" data-name="Path 124" d="M6.367,43.768c6.1-7.274,14.593-37.482,29.285-34.915S62.37,54.728,76.886,56.088s13.527-44.81,28.442-40.707,28.458,57.833,43.15,60.4,13.237-46.807,27.37-48.08,25.139,35.014,40.469,41.969,18.471-10.822,33.115-8.585,23.217,21.8,37.175,19.325,14.731-36.538,29.821-31.229,27.714,52.721,42.613,56.713,22.881-29.725,28.9-37.548" transform="translate(300.051 361.948) rotate(45)" fill="none" stroke="#0d5a35" stroke-linecap="round" stroke-width="2"/>
    <path id="Path_125" data-name="Path 125" d="M5.91,41.471C11.506,34.559,19.27,5.9,32.774,8.29S57.389,51.7,70.73,52.948,83.1,10.431,96.812,14.278s26.229,54.741,39.734,57.132S148.647,27,161.633,25.754s23.148,33.119,37.245,39.668,16.96-10.312,30.419-8.233,21.365,20.6,34.188,18.212,13.487-34.678,27.362-29.689,25.539,49.9,39.236,53.639,20.986-28.244,26.509-35.676" transform="translate(300.326 380.636) rotate(42)" fill="none" stroke="#0d5a35" stroke-linecap="round" stroke-width="2"/>
    <path id="Path_126" data-name="Path 126" d="M5.4,39.08c5.119-6.543,12.222-33.6,24.57-31.405s22.5,40.826,34.7,41.944S75.987,9.474,88.524,13.041s23.976,51.5,36.324,53.7S135.92,24.813,147.8,23.58s21.162,31.128,34.051,37.242,15.51-9.8,27.817-7.9S229.2,72.261,240.922,69.951s12.339-32.759,25.025-28.114,23.345,46.939,35.869,50.408,19.195-26.724,24.246-33.756" transform="translate(301.769 398.775) rotate(39)" fill="none" stroke="#0d5a35" stroke-linecap="round" stroke-width="2"/>
    <path id="Path_127" data-name="Path 127" d="M4.844,36.588C9.509,30.428,16.013,5.032,27.238,7.017s20.394,38.126,31.485,39.1S69.081,8.437,80.475,11.707s21.718,48.122,32.942,50.108,10.137-39.352,20.937-40.576,19.192,29.046,30.9,34.7,14.119-9.271,25.308-7.56,17.73,18,28.4,15.771,11.273-30.768,22.8-26.49S262.914,81.509,274.3,84.687s17.5-25.153,22.1-31.772" transform="translate(304.331 416.239) rotate(36)" fill="none" stroke="#0d5a35" stroke-linecap="round" stroke-width="2"/>
    <path id="Path_128" data-name="Path 128" d="M4.265,34C8.5,28.232,14.452,4.565,24.587,6.331S42.9,41.645,52.914,42.474,62.386,7.351,72.671,10.31s19.475,44.6,29.61,46.368S111.559,20,121.32,18.789s17.251,26.878,27.814,32.053,12.784-8.724,22.888-7.213,15.964,16.618,25.607,14.465,10.278-28.7,20.681-24.8S237.286,73.922,247.56,76.8s15.885-23.52,20.065-29.71" transform="translate(307.967 432.921) rotate(33)" fill="none" stroke="#0d5a35" stroke-linecap="round" stroke-width="2"/>
    <path id="Path_129" data-name="Path 129" d="M3.676,31.3C7.5,25.952,12.937,4.086,22.017,5.628s16.262,32.4,25.24,33.076S55.9,6.247,65.112,8.888,82.378,49.837,91.457,51.38s8.479-33.885,17.236-35.088,15.35,24.63,24.8,29.31,11.5-8.15,20.552-6.843,14.241,15.183,22.9,13.117,9.341-26.541,18.651-23.037,16.837,37.293,26.036,39.855,14.345-21.815,18.12-27.556" transform="translate(312.623 448.73) rotate(30)" fill="none" stroke="#0d5a35" stroke-linecap="round" stroke-width="2"/>
    <path id="Path_130" data-name="Path 130" d="M3.09,28.506C6.515,23.592,11.47,3.6,19.528,4.919S33.793,34.3,41.765,34.836,49.628,5.157,57.793,7.476,72.9,44.648,80.96,45.967s7.721-30.979,15.508-32.162,13.5,22.31,21.866,26.487,10.262-7.543,18.3-6.438S149.2,47.561,156.9,45.593s8.447-24.291,16.7-21.186S188.343,58.249,196.5,60.5s12.866-20.031,16.251-25.3" transform="translate(318.234 463.563) rotate(27)" fill="none" stroke="#0d5a35" stroke-linecap="round" stroke-width="2"/>
    <path id="Path_131" data-name="Path 131" d="M2.523,25.615c3.04-4.458,7.526-22.5,14.594-21.4S29.449,30.5,36.447,30.9s7.1-26.788,14.26-24.788S63.728,39.391,70.8,40.491s6.989-27.956,13.835-29.1,11.706,19.929,19.026,23.6,9.063-6.9,16.112-5.989,10.944,12.2,17.721,10.345S145.07,17.4,152.3,20.1s12.727,30.292,19.876,32.227,11.433-18.16,14.442-22.939" transform="translate(324.739 477.335) rotate(24)" fill="none" stroke="#0d5a35" stroke-linecap="round" stroke-width="2"/>
    <path id="Path_132" data-name="Path 132" d="M1.988,22.633c2.665-3.979,6.686-19.992,12.794-19.1s10.472,23.112,16.526,23.38S37.661,3.13,43.839,4.815,54.854,34.111,60.963,35s6.262-24.815,12.2-25.909,9.979,17.5,16.286,20.656,7.9-6.207,13.99-5.486,9.379,10.665,15.258,8.947,6.729-19.5,12.962-17.195S142.438,42.669,148.612,44.3s10.034-16.2,12.675-20.463" transform="matrix(0.934, 0.358, -0.358, 0.934, 332.069, 489.956)" fill="none" stroke="#0d5a35" stroke-linecap="round" stroke-width="2"/>
    <path id="Path_133" data-name="Path 133" d="M1.5,19.568C3.793,16.09,7.341,2.179,12.518,2.876s8.695,19.878,13.831,20.035S31.942,2.246,37.172,3.629s9.1,25.224,14.281,25.921S56.978,7.992,62.025,6.972s8.323,15.022,13.651,17.681,6.756-5.47,11.922-4.92,7.871,9.117,12.876,7.557,5.876-16.966,11.147-15.044,8.929,22.939,14.155,24.273,8.654-14.146,10.931-17.869" transform="translate(340.154 501.36) rotate(18)" fill="none" stroke="#0d5a35" stroke-linecap="round" stroke-width="2"/>
    <path id="Path_134" data-name="Path 134" d="M1.061,16.427C2.99,13.475,6.047,1.738,10.319,2.257s7.006,16.6,11.249,16.663S26.376,1.48,30.686,2.576s7.3,21.085,11.569,21.6S47.014,5.991,51.193,5.069s6.743,12.52,11.122,14.686,5.632-4.683,9.9-4.288,6.423,7.562,10.573,6.188S87.792,7.32,92.131,8.869,99.3,28.034,103.61,29.089s7.279-12,9.194-15.158" transform="matrix(0.966, 0.259, -0.259, 0.966, 348.916, 511.47)" fill="none" stroke="#0d5a35" stroke-linecap="round" stroke-width="2"/>
    <path id="Path_135" data-name="Path 135" d="M.691,13.223c1.56-2.4,4.1-11.9,7.486-11.537s5.412,13.282,8.782,13.281S20.941.853,24.354,1.68s5.6,16.895,8.99,17.258,3.95-14.717,7.279-15.514,5.241,10,8.7,11.69,4.518-3.846,7.9-3.582,5.032,6.01,8.342,4.849S69.678,4.766,73.11,5.958s5.52,15.35,8.932,16.144,5.894-9.763,7.445-12.332" transform="matrix(0.978, 0.208, -0.208, 0.978, 358.274, 520.225)" fill="none" stroke="#0d5a35" stroke-linecap="round" stroke-width="2"/>
    <path id="Path_136" data-name="Path 136" d="M.393,9.965c1.185-1.833,3.165-9.027,5.69-8.8s3.915,9.95,6.429,9.907S15.612.379,18.15.961s4.022,12.673,6.547,12.9S27.779,2.714,30.269,2.071s3.817,7.477,6.381,8.708,3.405-2.958,5.927-2.8,3.7,4.47,6.178,3.553,3.174-8.813,5.723-7.957,3.976,11.509,6.514,12.065,4.486-7.438,5.667-9.4" transform="translate(368.149 527.573) rotate(9)" fill="none" stroke="#0d5a35" stroke-linecap="round" stroke-width="2"/>
    <path id="Path_137" data-name="Path 137" d="M.177,6.666C.979,5.426,2.355.586,4.03.712S6.545,7.328,8.215,7.27s2.149-7.2,3.83-6.836S14.608,8.871,16.283,9s2.141-7.5,3.8-7.959S22.554,6,24.247,6.794s2.286-2.019,3.96-1.944,2.418,2.95,4.072,2.307,2.183-5.936,3.868-5.392,2.543,7.659,4.223,8,3.042-5.031,3.843-6.355" transform="translate(378.449 533.47) rotate(6)" fill="none" stroke="#0d5a35" stroke-linecap="round" stroke-width="2"/>
    <path id="Path_138" data-name="Path 138" d="M.044,3.34C.453,2.711,1.171.273,2.006.321S3.217,3.616,4.05,3.572,5.169-.054,6.006.111,7.229,4.318,8.064,4.366,9.181.588,10.012.343s1.2,2.465,2.039,2.849S13.2,2.159,14.039,2.183,15.226,3.64,16.055,3.3,17.183.308,18.02.566s1.218,3.817,2.054,3.974,1.551-2.549,1.959-3.219" transform="translate(389.096 537.876) rotate(3)" fill="none" stroke="#0d5a35" stroke-linecap="round" stroke-width="2"/>
  </g>
</svg>
