<svg id="Group_421" data-name="Group 421" xmlns="http://www.w3.org/2000/svg" width="21.666" height="18.5" viewBox="0 0 21.666 18.5">
  <path id="Polygon_4" data-name="Polygon 4" d="M13.383,0A5,5,0,0,1,17.7,2.473l2.489,4.25a5,5,0,0,1,0,5.053L17.7,16.027A5,5,0,0,1,13.383,18.5h-5.1a5,5,0,0,1-4.315-2.473l-2.489-4.25a5,5,0,0,1,0-5.053l2.489-4.25A5,5,0,0,1,8.283,0Z" fill="#ae5ecb"/>
  <g id="Group_28" data-name="Group 28" transform="translate(7.174 6.116)">
    <line id="Line_2" data-name="Line 2" x2="2.8" y2="2.6" transform="translate(0 3.668)" fill="none" stroke="#fff" stroke-width="2"/>
    <line id="Line_3" data-name="Line 3" y1="5.668" x2="5.334" transform="translate(2)" fill="none" stroke="#fff" stroke-width="2"/>
  </g>
</svg>
