<svg xmlns="http://www.w3.org/2000/svg" xmlns:xlink="http://www.w3.org/1999/xlink" width="109.052" height="95.75" viewBox="0 0 109.052 95.75">
  <defs>
    <linearGradient id="linear-gradient" x1="0.757" x2="0.242" y2="1" gradientUnits="objectBoundingBox">
      <stop offset="0" stop-color="#ae5ecb"/>
      <stop offset="1" stop-color="#7e6ef8"/>
    </linearGradient>
    <filter id="Polygon_2" x="0" y="0" width="109.052" height="95.75" filterUnits="userSpaceOnUse">
      <feOffset dx="2" dy="3" input="SourceAlpha"/>
      <feGaussianBlur stdDeviation="3" result="blur"/>
      <feFlood flood-color="#8e8b8b" flood-opacity="0.161"/>
      <feComposite operator="in" in2="blur"/>
      <feComposite in="SourceGraphic"/>
    </filter>
  </defs>
  <g id="Group_41" data-name="Group 41" transform="translate(-1341 -1847.25)">
    <g id="Group_365" data-name="Group 365">
      <g id="User_-_Login_Reg" data-name="User - Login/Reg" transform="translate(1286 1853.25)">
        <g transform="matrix(1, 0, 0, 1, 55, -6)" filter="url(#Polygon_2)">
          <path id="Polygon_2-2" data-name="Polygon 2" d="M62.556,0a10,10,0,0,1,8.629,4.947L88.094,33.822a10,10,0,0,1,0,10.106L71.186,72.8a10,10,0,0,1-8.629,4.947H28.5A10,10,0,0,1,19.866,72.8L2.959,43.928a10,10,0,0,1,0-10.106L19.866,4.947A10,10,0,0,1,28.5,0Z" transform="translate(7 6)" fill="url(#linear-gradient)"/>
        </g>
      </g>
      <g id="User_-_Login_Reg-2" data-name="User - Login/Reg" transform="translate(1168 1853.25)">
        <path id="Icon_awesome-tree" data-name="Icon awesome-tree" d="M23.645,24.5l-4.993-5.857h1.914a1.417,1.417,0,0,0,1.3-.845,1.467,1.467,0,0,0-.205-1.557l-4.883-5.883h1.806a1.415,1.415,0,0,0,1.3-.881,1.479,1.479,0,0,0-.265-1.559L12.729.313a1,1,0,0,0-1.458,0l-6.893,7.6a1.48,1.48,0,0,0-.265,1.559,1.416,1.416,0,0,0,1.3.881H7.224L2.34,16.241a1.469,1.469,0,0,0-.2,1.556,1.417,1.417,0,0,0,1.3.845H5.349L.356,24.5a1.471,1.471,0,0,0-.223,1.57,1.447,1.447,0,0,0,1.313.858H10V28.51L8.107,31.643A1.035,1.035,0,0,0,9,33.142h6a1.035,1.035,0,0,0,.894-1.5L14,28.51V26.928h8.554a1.447,1.447,0,0,0,1.313-.858A1.471,1.471,0,0,0,23.645,24.5Z" transform="translate(213.526 22.304)" fill="none" stroke="#fff" stroke-width="2"/>
      </g>
    </g>
  </g>
</svg>
