<svg xmlns="http://www.w3.org/2000/svg" width="14.481" height="12.015" viewBox="0 0 14.481 12.015">
  <g id="Group_57" data-name="Group 57" transform="translate(-1257 -725.75)">
    <path id="Polygon_4" data-name="Polygon 4" d="M8.036,0a5,5,0,0,1,4.282,2.419l.607,1.007a5,5,0,0,1,0,5.162L12.319,9.6a5,5,0,0,1-4.282,2.419H6.445A5,5,0,0,1,2.162,9.6L1.555,8.588a5,5,0,0,1,0-5.162l.607-1.007A5,5,0,0,1,6.445,0Z" transform="translate(1257 725.75)" fill="#ae5ecb"/>
    <g id="Group_28" data-name="Group 28" transform="translate(1261.814 729.745)">
      <line id="Line_2" data-name="Line 2" x2="2.081" y2="1.932" transform="translate(0 2.726)" fill="none" stroke="#fff" stroke-width="2"/>
      <line id="Line_3" data-name="Line 3" y1="4.212" x2="3.964" transform="translate(1.486 0)" fill="none" stroke="#fff" stroke-width="2"/>
    </g>
  </g>
</svg>
