<svg id="Wallet_Icon" data-name="Wallet Icon" xmlns="http://www.w3.org/2000/svg" width="69.68" height="59.5" viewBox="0 0 69.68 59.5">
  <g id="User_-_Login_Reg" data-name="User - Login/Reg" transform="translate(0)">
    <g id="Polygon_2" data-name="Polygon 2" fill="#19bb6c">
      <path d="M 46.52718353271484 58.50001525878906 L 23.15272521972656 58.50001525878906 C 19.97024345397949 58.50001525878906 16.99428367614746 56.79397201538086 15.38620471954346 54.04766464233398 L 3.82168436050415 34.29765319824219 C 2.179164409637451 31.49256324768066 2.179164409637451 28.00744438171387 3.82168436050415 25.20235443115234 L 15.38620471954346 5.452343940734863 C 16.99428367614746 2.706043720245361 19.97024345397949 1.000003814697266 23.15272521972656 1.000003814697266 L 46.52718353271484 1.000003814697266 C 49.70966339111328 1.000003814697266 52.68562316894531 2.706043720245361 54.2937126159668 5.452353954315186 L 65.85823059082031 25.20234298706055 C 67.50074768066406 28.00744438171387 67.50074768066406 31.49256324768066 65.85823059082031 34.29765319824219 L 54.2937126159668 54.04766464233398 C 52.68562316894531 56.79397201538086 49.70966339111328 58.50001525878906 46.52718353271484 58.50001525878906 Z" stroke="none"/>
      <path d="M 23.1527214050293 2.000003814697266 C 20.3238525390625 2.000003814697266 17.67855453491211 3.516483306884766 16.24914169311523 5.957637786865234 L 4.684623718261719 25.70764923095703 C 3.224609375 28.20105934143066 3.224609375 31.29893684387207 4.684623718261719 33.7923583984375 L 16.24914169311523 53.5423583984375 C 17.67856597900391 55.98352432250977 20.3238525390625 57.50000381469727 23.1527214050293 57.50000381469727 L 46.52718734741211 57.50000381469727 C 49.35605621337891 57.50000381469727 52.0013542175293 55.98352432250977 53.43077850341797 53.5423583984375 L 64.99528503417969 33.7923583984375 C 66.45528411865234 31.29894828796387 66.45528411865234 28.20105934143066 64.99530029296875 25.70764923095703 L 53.43077850341797 5.957649230957031 C 52.0013542175293 3.516483306884766 49.35605621337891 2.000003814697266 46.52718734741211 2.000003814697266 L 23.1527214050293 2.000003814697266 M 23.1527214050293 3.814697265625e-06 L 46.52718734741211 3.814697265625e-06 C 50.07797622680664 3.814697265625e-06 53.36246490478516 1.882915496826172 55.15666580200195 4.947059631347656 L 66.72119140625 24.69705963134766 C 68.54855346679688 27.81787109375 68.54855346679688 31.68213653564453 66.72119140625 34.80294799804688 L 55.15666580200195 54.55294799804688 C 53.36246490478516 57.61708068847656 50.07797622680664 59.50000381469727 46.52718734741211 59.50000381469727 L 23.1527214050293 59.50000381469727 C 19.60193252563477 59.50000381469727 16.31744384765625 57.61708068847656 14.52325439453125 54.55294799804688 L 2.958732604980469 34.80294799804688 C 1.131355285644531 31.68213653564453 1.131355285644531 27.8178596496582 2.958732604980469 24.69705963134766 L 14.52325439453125 4.947048187255859 C 16.31744384765625 1.882915496826172 19.60194396972656 3.814697265625e-06 23.1527214050293 3.814697265625e-06 Z" stroke="none" fill="#fff"/>
    </g>
    <g id="Icon_ionic-ios-wallet" data-name="Icon ionic-ios-wallet" transform="translate(20.215 16.25)">
      <path id="Path_50" data-name="Path 50" d="M28.406,11.25H7.594a4.222,4.222,0,0,0-4.219,4.219V27.281A4.222,4.222,0,0,0,7.594,31.5H28.406a4.222,4.222,0,0,0,4.219-4.219V15.469A4.222,4.222,0,0,0,28.406,11.25Z" transform="translate(-3.375 -4.499)" fill="none" stroke="#fff" stroke-width="2.5"/>
      <path id="Path_51" data-name="Path 51" d="M24.11,4.57,7.594,7.8C6.328,8.079,4.5,9.352,4.5,10.9A4.43,4.43,0,0,1,7.945,9.563h20.18V8.121a4.037,4.037,0,0,0-.977-2.644h0A3.325,3.325,0,0,0,24.11,4.57Z" transform="translate(-3.375 -4.499)" fill="none" stroke="#fff" stroke-width="2.5"/>
    </g>
  </g>
</svg>
