<svg xmlns="http://www.w3.org/2000/svg" width="73.634" height="80.372" viewBox="0 0 73.634 80.372">
  <g id="Untitled_design-2" data-name="Untitled design-2" transform="translate(-16.559 -1.667)">
    <path id="Path_385" data-name="Path 385" d="M275.127,297.618a.933.933,0,0,1,.013.182,1,1,0,0,1-.024.18.945.945,0,0,1-.148.331.98.98,0,0,1-.119.137.913.913,0,0,1-.144.111.863.863,0,0,1-.163.081.905.905,0,0,1-.176.048.94.94,0,0,1-.362-.01.9.9,0,0,1-.172-.058.913.913,0,0,1-.3-.209.949.949,0,0,1-.193-.306.985.985,0,0,1-.047-.176.934.934,0,0,1-.013-.182.924.924,0,0,1,.023-.18.945.945,0,0,1,.148-.331.977.977,0,0,1,.119-.137.88.88,0,0,1,.145-.111.915.915,0,0,1,.162-.082.99.99,0,0,1,.176-.047.94.94,0,0,1,.362.01.9.9,0,0,1,.172.058.893.893,0,0,1,.158.09.923.923,0,0,1,.137.119.95.95,0,0,1,.193.306A.99.99,0,0,1,275.127,297.618Zm0,0" transform="translate(-201.452 -231.626)" fill="#fff"/>
    <path id="Path_386" data-name="Path 386" d="M270.7,263.325c1.016-.172-.978-8.942-1.494-8.854S269.685,263.5,270.7,263.325Zm0,0" transform="translate(-198.143 -198.373)" fill="#fff"/>
    <path id="Path_387" data-name="Path 387" d="M241.038,310.216c.333.4,7.582-4.927,6.926-5.721S240.7,309.813,241.038,310.216Zm0,0" transform="translate(-176.139 -237.572)" fill="#fff"/>
    <path id="Path_388" data-name="Path 388" d="M291.27,305.666c.182-.49-8.06-4.1-8.419-3.134S291.088,306.156,291.27,305.666Zm0,0" transform="translate(-208.95 -235.96)" fill="#fff"/>
    <path id="Path_389" data-name="Path 389" d="M110.993,269.731a1.223,1.223,0,0,1,.008.254,1.268,1.268,0,0,1-.04.25,1.346,1.346,0,0,1-.089.237,1.317,1.317,0,0,1-.134.215,1.3,1.3,0,0,1-.61.438,1.313,1.313,0,0,1-.247.057,1.272,1.272,0,0,1-.253.009,1.331,1.331,0,0,1-.251-.041,1.293,1.293,0,0,1-.452-.223,1.245,1.245,0,0,1-.185-.173,1.224,1.224,0,0,1-.148-.205,1.3,1.3,0,0,1-.105-.231,1.364,1.364,0,0,1-.058-.246,1.34,1.34,0,0,1-.008-.253,1.312,1.312,0,0,1,.041-.25,1.306,1.306,0,0,1,.223-.453,1.285,1.285,0,0,1,.173-.185,1.267,1.267,0,0,1,.205-.147,1.3,1.3,0,0,1,.478-.163,1.348,1.348,0,0,1,.254-.008,1.26,1.26,0,0,1,.25.041,1.242,1.242,0,0,1,.237.089,1.3,1.3,0,0,1,.216.133,1.333,1.333,0,0,1,.185.173,1.281,1.281,0,0,1,.252.436A1.249,1.249,0,0,1,110.993,269.731Zm0,0" transform="translate(-72.082 -209.469)" fill="#fff"/>
    <path id="Path_390" data-name="Path 390" d="M106.468,221.591c1.424-.188-.924-12.505-1.647-12.409S105.044,221.78,106.468,221.591Zm0,0" transform="translate(-69.064 -162.836)" fill="#fff"/>
    <path id="Path_391" data-name="Path 391" d="M62,286.649c.445.579,10.805-6.491,9.93-7.63S61.556,286.071,62,286.649Zm0,0" transform="translate(-35.646 -217.552)" fill="#fff"/>
    <path id="Path_392" data-name="Path 392" d="M121.617,276.864c-.548,1.327,11.3,5.452,11.575,4.78S122.165,275.538,121.617,276.864Zm0,0" transform="translate(-82.424 -215.783)" fill="#fff"/>
    <path id="Path_393" data-name="Path 393" d="M186.991,137.318a2.99,2.99,0,0,1,.885,1.489,2.985,2.985,0,0,1,.052,1.162,3,3,0,0,1-.144.567,3.035,3.035,0,0,1-.252.527,2.992,2.992,0,0,1-1.839,1.352,3.065,3.065,0,0,1-.579.083,3.013,3.013,0,0,1-.584-.031,2.987,2.987,0,0,1-2.448-2.235,3.044,3.044,0,0,1-.083-.579,3.01,3.01,0,0,1,.031-.584,2.936,2.936,0,0,1,.145-.567,2.972,2.972,0,0,1,.251-.527,3.013,3.013,0,0,1,.351-.468,2.954,2.954,0,0,1,.435-.391,3,3,0,0,1,.5-.3,2.906,2.906,0,0,1,.552-.194,2.963,2.963,0,0,1,1.162-.053,3.048,3.048,0,0,1,.567.145,2.928,2.928,0,0,1,.528.252A2.964,2.964,0,0,1,186.991,137.318Zm0,0" transform="translate(-129.817 -105.832)" fill="#fff"/>
    <path id="Path_394" data-name="Path 394" d="M230.012,181.364c1.135-1.241-19.093-21.923-21.328-19.478S228.877,182.606,230.012,181.364Zm0,0" transform="translate(-150.637 -125.566)" fill="#fff"/>
    <path id="Path_395" data-name="Path 395" d="M196.926,29.871c3.236.712,7.857-27.839,6.213-28.2S193.689,29.159,196.926,29.871Zm0,0" transform="translate(-140.924 0)" fill="#fff"/>
    <path id="Path_396" data-name="Path 396" d="M78.146,153.676c-1-3.157-28.051,7.118-27.543,8.721S79.147,156.834,78.146,153.676Zm0,0" transform="translate(-26.709 -118.811)" fill="#fff"/>
    <path id="Path_397" data-name="Path 397" d="M73.855,211.881l-.532-12.141h-.943l-.532,12.141H58.53l-1.84-42.037h-3.03l-1.842,42.037H38.974l-.764-17.441H36.9l-.764,17.441H16.559v2.126H90.193v-2.126Zm0,0" transform="translate(0 -131.968)" fill="#fff"/>
  </g>
</svg>
